M48
; DRILL file {KiCad 7.0.7} date Sat Oct 21 15:17:43 2023
; FORMAT={-:-/ absolute / metric / decimal}
; #@! TF.CreationDate,2023-10-21T15:17:43+02:00
; #@! TF.GenerationSoftware,Kicad,Pcbnew,7.0.7
; #@! TF.FileFunction,Plated,1,2,PTH
FMAT,2
METRIC
; #@! TA.AperFunction,Plated,PTH,ViaDrill
T1C0.400
; #@! TA.AperFunction,Plated,PTH,ComponentDrill
T2C0.800
; #@! TA.AperFunction,Plated,PTH,ComponentDrill
T3C1.000
; #@! TA.AperFunction,Plated,PTH,ComponentDrill
T4C1.499
; #@! TA.AperFunction,Plated,PTH,ComponentDrill
T5C2.100
%
G90
G05
T1
X92.71Y-143.129
X118.745Y-126.619
X118.745Y-127.889
X118.745Y-129.159
X118.745Y-130.429
X120.015Y-126.619
X120.015Y-127.889
X120.015Y-129.159
X120.015Y-130.429
X123.19Y-46.609
X123.19Y-150.749
X123.19Y-153.289
X123.952Y-80.391
X123.952Y-101.727
X123.952Y-121.031
X123.952Y-141.605
X125.095Y-73.66
X125.476Y-114.681
X125.73Y-92.329
X125.73Y-153.289
X128.27Y-51.689
X128.27Y-153.289
X128.778Y-73.787
X129.286Y-49.403
X130.048Y-132.969
X130.81Y-51.689
X130.81Y-92.329
X130.81Y-153.289
X131.318Y-67.183
X133.292Y-65.209
X133.35Y-153.289
X133.604Y-55.207
X135.89Y-59.309
X135.89Y-61.849
X135.89Y-64.389
X135.89Y-153.289
X138.43Y-56.769
X138.43Y-59.309
X138.43Y-61.849
X138.43Y-92.329
X138.43Y-112.649
X138.43Y-153.289
X140.97Y-112.649
X140.97Y-117.729
X140.97Y-138.049
X140.97Y-140.589
X140.97Y-153.289
X142.367Y-79.502
X143.51Y-112.649
X143.51Y-153.289
X144.272Y-101.473
X144.272Y-122.555
X144.272Y-142.113
X144.526Y-81.661
X145.034Y-72.517
X145.796Y-46.609
X146.05Y-92.329
X146.05Y-112.649
X146.05Y-153.289
X146.558Y-73.787
X147.066Y-69.215
X148.59Y-117.983
X148.59Y-138.303
X148.59Y-153.289
X149.098Y-67.437
X149.86Y-59.563
X150.786Y-58.439
X151.13Y-92.329
X151.13Y-112.649
X151.13Y-153.289
X151.638Y-61.341
X151.892Y-64.643
X151.905Y-58.534
X152.904Y-58.805
X153.67Y-46.609
X153.67Y-153.289
X154.17Y-61.087
X155.448Y-63.881
X156.21Y-72.009
X156.21Y-153.289
X157.48Y-73.124
X157.734Y-59.563
X158.75Y-78.867
X158.75Y-112.649
X158.75Y-153.289
X159.004Y-93.345
X159.135Y-74.164
X159.766Y-115.443
X160.528Y-49.911
X160.528Y-66.421
X160.782Y-63.881
X160.782Y-74.803
X161.29Y-46.609
X161.29Y-120.269
X161.29Y-138.049
X161.29Y-153.289
X161.778Y-65.913
X161.798Y-58.547
X163.83Y-46.609
X163.83Y-130.429
X163.83Y-153.289
X164.592Y-142.113
X164.846Y-68.707
X164.846Y-74.803
X166.37Y-54.229
X166.37Y-79.629
X166.37Y-92.329
X166.37Y-112.649
X166.37Y-153.289
X168.91Y-66.929
X168.91Y-77.343
X168.91Y-97.663
X168.91Y-117.983
X168.91Y-138.303
X168.91Y-153.289
X169.418Y-55.499
X171.196Y-54.737
X171.196Y-75.565
X171.45Y-92.329
X171.45Y-112.649
X171.45Y-153.289
X172.212Y-61.087
X173.99Y-153.289
X174.498Y-53.721
X174.498Y-61.087
X176.53Y-63.5
X176.53Y-153.289
X177.292Y-57.023
X179.07Y-46.609
X179.07Y-92.329
X179.07Y-112.649
X179.07Y-153.289
X180.086Y-138.303
X180.594Y-132.207
X181.102Y-133.731
X181.61Y-46.609
X181.61Y-49.149
X181.61Y-51.689
X181.61Y-150.749
X181.61Y-153.289
X184.15Y-46.609
X184.15Y-49.149
X184.15Y-51.689
X184.15Y-61.849
X184.15Y-72.009
X184.15Y-140.589
X184.15Y-143.129
X184.15Y-145.669
X184.15Y-148.209
X184.15Y-150.749
X184.15Y-153.289
T2
X140.208Y-58.547
X140.208Y-63.447
T3
X95.631Y-135.509
X95.631Y-138.049
X95.631Y-140.589
X98.171Y-135.509
X98.171Y-138.049
X98.171Y-140.589
X100.457Y-151.003
X102.87Y-112.649
X102.87Y-115.189
X102.87Y-117.729
X102.87Y-120.269
X102.87Y-122.809
X102.87Y-125.349
X102.87Y-127.889
X102.87Y-130.429
X102.87Y-132.969
X102.87Y-135.509
X102.87Y-138.049
X102.87Y-140.589
X102.87Y-143.129
X102.87Y-145.669
X102.87Y-148.209
X102.997Y-151.003
X105.41Y-112.649
X105.41Y-115.189
X105.41Y-117.729
X105.41Y-120.269
X105.41Y-122.809
X105.41Y-125.349
X105.41Y-127.889
X105.41Y-130.429
X105.41Y-132.969
X105.41Y-135.509
X105.41Y-138.049
X105.41Y-140.589
X105.41Y-143.129
X105.41Y-145.669
X105.41Y-148.209
X105.537Y-110.363
X105.537Y-151.003
X105.577Y-97.663
X107.95Y-112.649
X107.95Y-115.189
X107.95Y-117.729
X107.95Y-120.269
X107.95Y-122.809
X107.95Y-125.349
X107.95Y-127.889
X107.95Y-130.429
X107.95Y-132.969
X107.95Y-135.509
X107.95Y-138.049
X107.95Y-140.589
X107.95Y-143.129
X107.95Y-145.669
X107.95Y-148.209
X108.077Y-97.663
X108.077Y-110.363
X108.077Y-151.003
X110.49Y-112.649
X110.49Y-115.189
X110.49Y-117.729
X110.49Y-120.269
X110.49Y-122.809
X110.49Y-125.349
X110.49Y-127.889
X110.49Y-130.429
X110.49Y-132.969
X110.49Y-135.509
X110.49Y-138.049
X110.49Y-140.589
X110.49Y-143.129
X110.49Y-145.669
X110.49Y-148.209
X110.577Y-97.663
X110.617Y-110.363
X110.617Y-151.003
X113.03Y-112.649
X113.03Y-115.189
X113.03Y-117.729
X113.03Y-120.269
X113.03Y-122.809
X113.03Y-125.349
X113.03Y-127.889
X113.03Y-130.429
X113.03Y-132.969
X113.03Y-135.509
X113.03Y-138.049
X113.03Y-140.589
X113.03Y-143.129
X113.03Y-145.669
X113.03Y-148.209
X113.157Y-110.363
X113.157Y-151.003
X125.73Y-54.229
X125.73Y-56.769
X125.73Y-59.309
X125.73Y-61.849
X125.73Y-64.389
X125.73Y-66.929
X136.144Y-49.403
X136.144Y-51.943
X138.684Y-49.403
X138.684Y-51.943
X141.224Y-49.403
X141.224Y-51.943
X166.37Y-59.309
X166.37Y-61.849
X166.37Y-64.389
X166.37Y-66.929
X179.07Y-59.349
X179.07Y-61.849
X179.07Y-64.349
T4
X130.81Y-87.249
X130.81Y-107.569
X130.81Y-127.889
X130.81Y-148.209
X137.16Y-84.709
X137.16Y-105.029
X137.16Y-125.349
X137.16Y-145.669
X151.13Y-87.249
X151.13Y-107.569
X151.13Y-127.889
X151.13Y-148.209
X157.48Y-84.709
X157.48Y-105.029
X157.48Y-125.349
X157.48Y-145.669
X171.45Y-87.249
X171.45Y-107.569
X171.45Y-127.889
X171.45Y-148.209
X177.8Y-84.709
X177.8Y-105.029
X177.8Y-125.349
X177.8Y-145.669
T5
X102.677Y-94.913G85X102.677Y-95.413
G05
X113.477Y-94.913G85X113.477Y-95.413
G05
X181.82Y-56.449G85X181.32Y-56.449
G05
X181.82Y-67.249G85X181.32Y-67.249
G05
T0
M30
