%TF.GenerationSoftware,KiCad,Pcbnew,7.0.7*%
%TF.CreationDate,2023-10-21T15:17:40+02:00*%
%TF.ProjectId,mpad,6d706164-2e6b-4696-9361-645f70636258,rev?*%
%TF.SameCoordinates,Original*%
%TF.FileFunction,Profile,NP*%
%FSLAX46Y46*%
G04 Gerber Fmt 4.6, Leading zero omitted, Abs format (unit mm)*
G04 Created by KiCad (PCBNEW 7.0.7) date 2023-10-21 15:17:40*
%MOMM*%
%LPD*%
G01*
G04 APERTURE LIST*
%TA.AperFunction,Profile*%
%ADD10C,0.150000*%
%TD*%
%TA.AperFunction,Profile*%
%ADD11C,0.200000*%
%TD*%
G04 APERTURE END LIST*
D10*
X102870000Y-99949000D02*
G75*
G03*
X100330000Y-102489000I0J-2540000D01*
G01*
X118110000Y-124079000D02*
X118110001Y-111378999D01*
X118110002Y-92328998D02*
G75*
G03*
X115570000Y-89788998I-2540002J-2D01*
G01*
X118110001Y-153289001D02*
X118110000Y-132969000D01*
X123190000Y-155829000D02*
X184150000Y-155829000D01*
X115570000Y-99949000D02*
G75*
G03*
X118110000Y-97409000I0J2540000D01*
G01*
X120650000Y-46609000D02*
X120650000Y-124079000D01*
X102870000Y-99949000D02*
X115570000Y-99949000D01*
X186690000Y-153289000D02*
X186690000Y-46609000D01*
X123190000Y-44069000D02*
G75*
G03*
X120650000Y-46609000I0J-2540000D01*
G01*
X184150000Y-44069000D02*
X123190000Y-44069000D01*
X90170000Y-92329000D02*
X90170000Y-153289000D01*
X186690000Y-46609000D02*
G75*
G03*
X184150000Y-44069000I-2540000J0D01*
G01*
X102870000Y-108839000D02*
X115570000Y-108839000D01*
X92710000Y-89789000D02*
G75*
G03*
X90170000Y-92328999I0J-2540000D01*
G01*
X118110000Y-124079000D02*
G75*
G03*
X120650000Y-124079000I1270000J0D01*
G01*
X184150000Y-155829000D02*
G75*
G03*
X186690000Y-153289000I0J2540000D01*
G01*
X100330000Y-106299000D02*
G75*
G03*
X102870000Y-108839000I2540000J0D01*
G01*
X115570000Y-89789000D02*
X92710000Y-89789000D01*
X118110001Y-111378999D02*
G75*
G03*
X115570001Y-108838999I-2540001J-1D01*
G01*
X100330000Y-106299000D02*
X100330000Y-102489000D01*
X115570001Y-155829001D02*
G75*
G03*
X118110001Y-153289001I-1J2540001D01*
G01*
X90170000Y-153289000D02*
G75*
G03*
X92710000Y-155829000I2540000J0D01*
G01*
X120650000Y-153289000D02*
X120650000Y-132969000D01*
X120650000Y-153289000D02*
G75*
G03*
X123190000Y-155829000I2540000J0D01*
G01*
X120650000Y-132969000D02*
G75*
G03*
X118110000Y-132969000I-1270000J0D01*
G01*
D11*
X118110000Y-97409000D02*
X118110000Y-92329000D01*
D10*
X92710000Y-155829000D02*
X115570001Y-155829001D01*
M02*
