M48
; DRILL file {KiCad 7.0.7} date Sat Oct 21 15:17:43 2023
; FORMAT={-:-/ absolute / metric / decimal}
; #@! TF.CreationDate,2023-10-21T15:17:43+02:00
; #@! TF.GenerationSoftware,Kicad,Pcbnew,7.0.7
; #@! TF.FileFunction,NonPlated,1,2,NPTH
FMAT,2
METRIC
; #@! TA.AperFunction,NonPlated,NPTH,ComponentDrill
T1C0.900
; #@! TA.AperFunction,NonPlated,NPTH,ComponentDrill
T2C1.702
; #@! TA.AperFunction,NonPlated,NPTH,ComponentDrill
T3C3.988
%
G90
G05
T1
X151.47Y-49.509
X155.87Y-49.509
T2
X128.27Y-82.169
X128.27Y-102.489
X128.27Y-122.809
X128.27Y-143.129
X138.43Y-82.169
X138.43Y-102.489
X138.43Y-122.809
X138.43Y-143.129
X148.59Y-82.169
X148.59Y-102.489
X148.59Y-122.809
X148.59Y-143.129
X158.75Y-82.169
X158.75Y-102.489
X158.75Y-122.809
X158.75Y-143.129
X168.91Y-82.169
X168.91Y-102.489
X168.91Y-122.809
X168.91Y-143.129
X179.07Y-82.169
X179.07Y-102.489
X179.07Y-122.809
X179.07Y-143.129
T3
X133.35Y-82.169
X133.35Y-102.489
X133.35Y-122.809
X133.35Y-143.129
X153.67Y-82.169
X153.67Y-102.489
X153.67Y-122.809
X153.67Y-143.129
X173.99Y-82.169
X173.99Y-102.489
X173.99Y-122.809
X173.99Y-143.129
T0
M30
