%TF.GenerationSoftware,KiCad,Pcbnew,7.0.7*%
%TF.CreationDate,2023-10-21T15:17:40+02:00*%
%TF.ProjectId,mpad,6d706164-2e6b-4696-9361-645f70636258,rev?*%
%TF.SameCoordinates,Original*%
%TF.FileFunction,Paste,Top*%
%TF.FilePolarity,Positive*%
%FSLAX46Y46*%
G04 Gerber Fmt 4.6, Leading zero omitted, Abs format (unit mm)*
G04 Created by KiCad (PCBNEW 7.0.7) date 2023-10-21 15:17:40*
%MOMM*%
%LPD*%
G01*
G04 APERTURE LIST*
G04 Aperture macros list*
%AMRoundRect*
0 Rectangle with rounded corners*
0 $1 Rounding radius*
0 $2 $3 $4 $5 $6 $7 $8 $9 X,Y pos of 4 corners*
0 Add a 4 corners polygon primitive as box body*
4,1,4,$2,$3,$4,$5,$6,$7,$8,$9,$2,$3,0*
0 Add four circle primitives for the rounded corners*
1,1,$1+$1,$2,$3*
1,1,$1+$1,$4,$5*
1,1,$1+$1,$6,$7*
1,1,$1+$1,$8,$9*
0 Add four rect primitives between the rounded corners*
20,1,$1+$1,$2,$3,$4,$5,0*
20,1,$1+$1,$4,$5,$6,$7,0*
20,1,$1+$1,$6,$7,$8,$9,0*
20,1,$1+$1,$8,$9,$2,$3,0*%
G04 Aperture macros list end*
%ADD10RoundRect,0.237500X-0.250000X-0.237500X0.250000X-0.237500X0.250000X0.237500X-0.250000X0.237500X0*%
%ADD11RoundRect,0.237500X-0.287500X-0.237500X0.287500X-0.237500X0.287500X0.237500X-0.287500X0.237500X0*%
%ADD12RoundRect,0.237500X0.237500X-0.300000X0.237500X0.300000X-0.237500X0.300000X-0.237500X-0.300000X0*%
%ADD13RoundRect,0.250000X-0.600000X0.400000X-0.600000X-0.400000X0.600000X-0.400000X0.600000X0.400000X0*%
%ADD14RoundRect,0.237500X0.250000X0.237500X-0.250000X0.237500X-0.250000X-0.237500X0.250000X-0.237500X0*%
%ADD15RoundRect,0.237500X0.300000X0.237500X-0.300000X0.237500X-0.300000X-0.237500X0.300000X-0.237500X0*%
%ADD16RoundRect,0.062500X-0.062500X0.375000X-0.062500X-0.375000X0.062500X-0.375000X0.062500X0.375000X0*%
%ADD17RoundRect,0.062500X-0.375000X0.062500X-0.375000X-0.062500X0.375000X-0.062500X0.375000X0.062500X0*%
%ADD18R,1.400000X1.600000*%
%ADD19RoundRect,0.237500X-0.237500X0.250000X-0.237500X-0.250000X0.237500X-0.250000X0.237500X0.250000X0*%
%ADD20RoundRect,0.237500X-0.300000X-0.237500X0.300000X-0.237500X0.300000X0.237500X-0.300000X0.237500X0*%
%ADD21RoundRect,0.237500X-0.237500X0.300000X-0.237500X-0.300000X0.237500X-0.300000X0.237500X0.300000X0*%
%ADD22RoundRect,0.237500X0.237500X-0.250000X0.237500X0.250000X-0.237500X0.250000X-0.237500X-0.250000X0*%
%ADD23R,0.500000X2.500000*%
%ADD24R,2.000000X2.500000*%
%ADD25R,2.000000X1.500000*%
%ADD26R,2.000000X3.800000*%
%ADD27RoundRect,0.237500X0.237500X-0.287500X0.237500X0.287500X-0.237500X0.287500X-0.237500X-0.287500X0*%
G04 APERTURE END LIST*
D10*
%TO.C,R23*%
X171299500Y-66167000D03*
X173124500Y-66167000D03*
%TD*%
D11*
%TO.C,D23*%
X152795000Y-138303000D03*
X154545000Y-138303000D03*
%TD*%
D12*
%TO.C,C8*%
X171196000Y-64235500D03*
X171196000Y-62510500D03*
%TD*%
D13*
%TO.C,D10*%
X123952000Y-144681000D03*
X123952000Y-148181000D03*
%TD*%
D11*
%TO.C,D22*%
X132475000Y-138303000D03*
X134225000Y-138303000D03*
%TD*%
%TO.C,D24*%
X173115000Y-138303000D03*
X174865000Y-138303000D03*
%TD*%
D14*
%TO.C,R4*%
X134262500Y-94361000D03*
X132437500Y-94361000D03*
%TD*%
%TO.C,R15*%
X132738500Y-59309000D03*
X130913500Y-59309000D03*
%TD*%
D11*
%TO.C,D14*%
X152795000Y-77343000D03*
X154545000Y-77343000D03*
%TD*%
D13*
%TO.C,D1*%
X123952000Y-83721000D03*
X123952000Y-87221000D03*
%TD*%
%TO.C,D6*%
X164592000Y-104041000D03*
X164592000Y-107541000D03*
%TD*%
D11*
%TO.C,D21*%
X173115000Y-117983000D03*
X174865000Y-117983000D03*
%TD*%
D15*
%TO.C,C1*%
X150976500Y-68961000D03*
X149251500Y-68961000D03*
%TD*%
D16*
%TO.C,U2*%
X156170000Y-60189500D03*
X155670000Y-60189500D03*
X155170000Y-60189500D03*
X154670000Y-60189500D03*
X154170000Y-60189500D03*
X153670000Y-60189500D03*
X153170000Y-60189500D03*
X152670000Y-60189500D03*
X152170000Y-60189500D03*
X151670000Y-60189500D03*
X151170000Y-60189500D03*
D17*
X150232500Y-61127000D03*
X150232500Y-61627000D03*
X150232500Y-62127000D03*
X150232500Y-62627000D03*
X150232500Y-63127000D03*
X150232500Y-63627000D03*
X150232500Y-64127000D03*
X150232500Y-64627000D03*
X150232500Y-65127000D03*
X150232500Y-65627000D03*
X150232500Y-66127000D03*
D16*
X151170000Y-67064500D03*
X151670000Y-67064500D03*
X152170000Y-67064500D03*
X152670000Y-67064500D03*
X153170000Y-67064500D03*
X153670000Y-67064500D03*
X154170000Y-67064500D03*
X154670000Y-67064500D03*
X155170000Y-67064500D03*
X155670000Y-67064500D03*
X156170000Y-67064500D03*
D17*
X157107500Y-66127000D03*
X157107500Y-65627000D03*
X157107500Y-65127000D03*
X157107500Y-64627000D03*
X157107500Y-64127000D03*
X157107500Y-63627000D03*
X157107500Y-63127000D03*
X157107500Y-62627000D03*
X157107500Y-62127000D03*
X157107500Y-61627000D03*
X157107500Y-61127000D03*
%TD*%
D11*
%TO.C,D20*%
X152795000Y-117983000D03*
X154545000Y-117983000D03*
%TD*%
D12*
%TO.C,C13*%
X151638000Y-56869500D03*
X151638000Y-55144500D03*
%TD*%
D18*
%TO.C,SW1*%
X97500000Y-118809000D03*
X97500000Y-126809000D03*
X93000000Y-118809000D03*
X93000000Y-126809000D03*
%TD*%
D14*
%TO.C,R5*%
X154582500Y-94361000D03*
X152757500Y-94361000D03*
%TD*%
D13*
%TO.C,D9*%
X164592000Y-124361000D03*
X164592000Y-127861000D03*
%TD*%
D11*
%TO.C,D17*%
X152795000Y-97663000D03*
X154545000Y-97663000D03*
%TD*%
D19*
%TO.C,R20*%
X173228000Y-56110500D03*
X173228000Y-57935500D03*
%TD*%
D14*
%TO.C,R3*%
X174902500Y-74041000D03*
X173077500Y-74041000D03*
%TD*%
D20*
%TO.C,C5*%
X159411500Y-60071000D03*
X161136500Y-60071000D03*
%TD*%
D21*
%TO.C,C3*%
X158750000Y-66828500D03*
X158750000Y-68553500D03*
%TD*%
D15*
%TO.C,C10*%
X162914500Y-52197000D03*
X161189500Y-52197000D03*
%TD*%
D14*
%TO.C,R2*%
X154582500Y-74041000D03*
X152757500Y-74041000D03*
%TD*%
%TO.C,R12*%
X174902500Y-135001000D03*
X173077500Y-135001000D03*
%TD*%
%TO.C,R6*%
X174902500Y-94361000D03*
X173077500Y-94361000D03*
%TD*%
%TO.C,R11*%
X154582500Y-135001000D03*
X152757500Y-135001000D03*
%TD*%
D22*
%TO.C,R18*%
X154686000Y-56919500D03*
X154686000Y-55094500D03*
%TD*%
D13*
%TO.C,D3*%
X164592000Y-83721000D03*
X164592000Y-87221000D03*
%TD*%
%TO.C,D4*%
X123952000Y-104041000D03*
X123952000Y-107541000D03*
%TD*%
D14*
%TO.C,R14*%
X132738500Y-61595000D03*
X130913500Y-61595000D03*
%TD*%
D19*
%TO.C,R21*%
X173228000Y-62460500D03*
X173228000Y-64285500D03*
%TD*%
D11*
%TO.C,D19*%
X132475000Y-117983000D03*
X134225000Y-117983000D03*
%TD*%
D14*
%TO.C,R16*%
X132484500Y-49403000D03*
X130659500Y-49403000D03*
%TD*%
D23*
%TO.C,J1*%
X155270000Y-52109000D03*
X154470000Y-52109000D03*
X153670000Y-52109000D03*
X152870000Y-52109000D03*
X152070000Y-52109000D03*
D24*
X158070000Y-52109000D03*
X158070000Y-46609000D03*
X149270000Y-52109000D03*
X149270000Y-46609000D03*
%TD*%
D11*
%TO.C,D18*%
X173115000Y-97663000D03*
X174865000Y-97663000D03*
%TD*%
D13*
%TO.C,D12*%
X164592000Y-144681000D03*
X164592000Y-148181000D03*
%TD*%
%TO.C,D7*%
X123952000Y-124361000D03*
X123952000Y-127861000D03*
%TD*%
D25*
%TO.C,U1*%
X166674000Y-47611000D03*
X166674000Y-49911000D03*
D26*
X172974000Y-49911000D03*
D25*
X166674000Y-52211000D03*
%TD*%
D14*
%TO.C,R7*%
X134262500Y-114681000D03*
X132437500Y-114681000D03*
%TD*%
D11*
%TO.C,D15*%
X173115000Y-77343000D03*
X174865000Y-77343000D03*
%TD*%
D21*
%TO.C,C2*%
X144272000Y-61912500D03*
X144272000Y-63637500D03*
%TD*%
D12*
%TO.C,C9*%
X171196000Y-57885500D03*
X171196000Y-56160500D03*
%TD*%
D10*
%TO.C,R22*%
X171299500Y-59817000D03*
X173124500Y-59817000D03*
%TD*%
D13*
%TO.C,D5*%
X144272000Y-104041000D03*
X144272000Y-107541000D03*
%TD*%
D22*
%TO.C,R17*%
X153162000Y-56919500D03*
X153162000Y-55094500D03*
%TD*%
D20*
%TO.C,C6*%
X159919500Y-61595000D03*
X161644500Y-61595000D03*
%TD*%
D14*
%TO.C,R19*%
X160678500Y-56007000D03*
X158853500Y-56007000D03*
%TD*%
%TO.C,R9*%
X174902500Y-114681000D03*
X173077500Y-114681000D03*
%TD*%
D13*
%TO.C,D11*%
X144272000Y-144681000D03*
X144272000Y-148181000D03*
%TD*%
D20*
%TO.C,C11*%
X175565500Y-51181000D03*
X177290500Y-51181000D03*
%TD*%
D14*
%TO.C,R10*%
X134262500Y-135001000D03*
X132437500Y-135001000D03*
%TD*%
D11*
%TO.C,D13*%
X132475000Y-77343000D03*
X134225000Y-77343000D03*
%TD*%
D12*
%TO.C,C7*%
X148336000Y-61187500D03*
X148336000Y-59462500D03*
%TD*%
D22*
%TO.C,R13*%
X95250000Y-147494000D03*
X95250000Y-145669000D03*
%TD*%
D14*
%TO.C,R8*%
X154582500Y-114681000D03*
X152757500Y-114681000D03*
%TD*%
D27*
%TO.C,CAP1*%
X95250000Y-151520500D03*
X95250000Y-149770500D03*
%TD*%
D12*
%TO.C,C4*%
X144272000Y-59319500D03*
X144272000Y-57594500D03*
%TD*%
D11*
%TO.C,D16*%
X132475000Y-97663000D03*
X134225000Y-97663000D03*
%TD*%
D13*
%TO.C,D8*%
X144272000Y-124361000D03*
X144272000Y-127861000D03*
%TD*%
D20*
%TO.C,C12*%
X175565500Y-48895000D03*
X177290500Y-48895000D03*
%TD*%
D13*
%TO.C,D2*%
X144272000Y-83721000D03*
X144272000Y-87221000D03*
%TD*%
D14*
%TO.C,R1*%
X134262500Y-74041000D03*
X132437500Y-74041000D03*
%TD*%
M02*
