%TF.GenerationSoftware,KiCad,Pcbnew,7.0.7*%
%TF.CreationDate,2023-10-21T15:17:40+02:00*%
%TF.ProjectId,mpad,6d706164-2e6b-4696-9361-645f70636258,rev?*%
%TF.SameCoordinates,Original*%
%TF.FileFunction,Legend,Bot*%
%TF.FilePolarity,Positive*%
%FSLAX46Y46*%
G04 Gerber Fmt 4.6, Leading zero omitted, Abs format (unit mm)*
G04 Created by KiCad (PCBNEW 7.0.7) date 2023-10-21 15:17:40*
%MOMM*%
%LPD*%
G01*
G04 APERTURE LIST*
G04 Aperture macros list*
%AMRoundRect*
0 Rectangle with rounded corners*
0 $1 Rounding radius*
0 $2 $3 $4 $5 $6 $7 $8 $9 X,Y pos of 4 corners*
0 Add a 4 corners polygon primitive as box body*
4,1,4,$2,$3,$4,$5,$6,$7,$8,$9,$2,$3,0*
0 Add four circle primitives for the rounded corners*
1,1,$1+$1,$2,$3*
1,1,$1+$1,$4,$5*
1,1,$1+$1,$6,$7*
1,1,$1+$1,$8,$9*
0 Add four rect primitives between the rounded corners*
20,1,$1+$1,$2,$3,$4,$5,0*
20,1,$1+$1,$4,$5,$6,$7,0*
20,1,$1+$1,$6,$7,$8,$9,0*
20,1,$1+$1,$8,$9,$2,$3,0*%
G04 Aperture macros list end*
%ADD10C,1.701800*%
%ADD11C,3.987800*%
%ADD12C,2.286000*%
%ADD13R,1.700000X1.700000*%
%ADD14O,1.700000X1.700000*%
%ADD15C,1.524000*%
%ADD16RoundRect,0.725000X-0.725000X-0.975000X0.725000X-0.975000X0.725000X0.975000X-0.725000X0.975000X0*%
%ADD17C,0.900000*%
%ADD18C,1.500000*%
%ADD19RoundRect,0.725000X-0.975000X0.725000X-0.975000X-0.725000X0.975000X-0.725000X0.975000X0.725000X0*%
G04 APERTURE END LIST*
%LPC*%
D10*
%TO.C,K6*%
X179070000Y-102489000D03*
D11*
X173990000Y-102489000D03*
D10*
X168910000Y-102489000D03*
D12*
X171450000Y-107569000D03*
X177800000Y-105029000D03*
%TD*%
D10*
%TO.C,K11*%
X158750000Y-143129000D03*
D11*
X153670000Y-143129000D03*
D10*
X148590000Y-143129000D03*
D12*
X151130000Y-148209000D03*
X157480000Y-145669000D03*
%TD*%
D13*
%TO.C,J7*%
X105537000Y-110363000D03*
D14*
X108077000Y-110363000D03*
X110617000Y-110363000D03*
X113157000Y-110363000D03*
%TD*%
D13*
%TO.C,J11*%
X105410000Y-148209000D03*
D14*
X105410000Y-145669000D03*
X105410000Y-143129000D03*
X105410000Y-140589000D03*
X105410000Y-138049000D03*
X105410000Y-135509000D03*
X105410000Y-132969000D03*
X105410000Y-130429000D03*
X105410000Y-127889000D03*
X105410000Y-125349000D03*
X105410000Y-122809000D03*
X105410000Y-120269000D03*
X105410000Y-117729000D03*
X105410000Y-115189000D03*
X105410000Y-112649000D03*
%TD*%
D13*
%TO.C,J12*%
X102870000Y-148209000D03*
D14*
X102870000Y-145669000D03*
X102870000Y-143129000D03*
X102870000Y-140589000D03*
X102870000Y-138049000D03*
X102870000Y-135509000D03*
X102870000Y-132969000D03*
X102870000Y-130429000D03*
X102870000Y-127889000D03*
X102870000Y-125349000D03*
X102870000Y-122809000D03*
X102870000Y-120269000D03*
X102870000Y-117729000D03*
X102870000Y-115189000D03*
X102870000Y-112649000D03*
%TD*%
D10*
%TO.C,K1*%
X138430000Y-82169000D03*
D11*
X133350000Y-82169000D03*
D10*
X128270000Y-82169000D03*
D12*
X130810000Y-87249000D03*
X137160000Y-84709000D03*
%TD*%
D10*
%TO.C,K10*%
X138430000Y-143129000D03*
D11*
X133350000Y-143129000D03*
D10*
X128270000Y-143129000D03*
D12*
X130810000Y-148209000D03*
X137160000Y-145669000D03*
%TD*%
D10*
%TO.C,K9*%
X179070000Y-122809000D03*
D11*
X173990000Y-122809000D03*
D10*
X168910000Y-122809000D03*
D12*
X171450000Y-127889000D03*
X177800000Y-125349000D03*
%TD*%
D13*
%TO.C,J6*%
X113157000Y-151003000D03*
D14*
X110617000Y-151003000D03*
X108077000Y-151003000D03*
X105537000Y-151003000D03*
X102997000Y-151003000D03*
X100457000Y-151003000D03*
%TD*%
D10*
%TO.C,K8*%
X158750000Y-122809000D03*
D11*
X153670000Y-122809000D03*
D10*
X148590000Y-122809000D03*
D12*
X151130000Y-127889000D03*
X157480000Y-125349000D03*
%TD*%
D13*
%TO.C,J2*%
X166370000Y-59309000D03*
D14*
X166370000Y-61849000D03*
X166370000Y-64389000D03*
X166370000Y-66929000D03*
%TD*%
D10*
%TO.C,K5*%
X158750000Y-102489000D03*
D11*
X153670000Y-102489000D03*
D10*
X148590000Y-102489000D03*
D12*
X151130000Y-107569000D03*
X157480000Y-105029000D03*
%TD*%
D15*
%TO.C,SW3*%
X108077000Y-97663000D03*
X110577000Y-97663000D03*
X105577000Y-97663000D03*
D16*
X113477000Y-95163000D03*
X102677000Y-95163000D03*
%TD*%
D10*
%TO.C,K4*%
X138430000Y-102489000D03*
D11*
X133350000Y-102489000D03*
D10*
X128270000Y-102489000D03*
D12*
X130810000Y-107569000D03*
X137160000Y-105029000D03*
%TD*%
D10*
%TO.C,K2*%
X158750000Y-82169000D03*
D11*
X153670000Y-82169000D03*
D10*
X148590000Y-82169000D03*
D12*
X151130000Y-87249000D03*
X157480000Y-84709000D03*
%TD*%
D13*
%TO.C,J3*%
X141224000Y-49403000D03*
D14*
X141224000Y-51943000D03*
X138684000Y-49403000D03*
X138684000Y-51943000D03*
X136144000Y-49403000D03*
X136144000Y-51943000D03*
%TD*%
D17*
%TO.C,J1*%
X155870000Y-49509000D03*
X151470000Y-49509000D03*
%TD*%
D10*
%TO.C,K12*%
X179070000Y-143129000D03*
D11*
X173990000Y-143129000D03*
D10*
X168910000Y-143129000D03*
D12*
X171450000Y-148209000D03*
X177800000Y-145669000D03*
%TD*%
D13*
%TO.C,J5*%
X125730000Y-66929000D03*
D14*
X125730000Y-64389000D03*
X125730000Y-61849000D03*
X125730000Y-59309000D03*
X125730000Y-56769000D03*
X125730000Y-54229000D03*
%TD*%
D13*
%TO.C,J10*%
X107950000Y-148209000D03*
D14*
X107950000Y-145669000D03*
X107950000Y-143129000D03*
X107950000Y-140589000D03*
X107950000Y-138049000D03*
X107950000Y-135509000D03*
X107950000Y-132969000D03*
X107950000Y-130429000D03*
X107950000Y-127889000D03*
X107950000Y-125349000D03*
X107950000Y-122809000D03*
X107950000Y-120269000D03*
X107950000Y-117729000D03*
X107950000Y-115189000D03*
X107950000Y-112649000D03*
%TD*%
D10*
%TO.C,K3*%
X179070000Y-82169000D03*
D11*
X173990000Y-82169000D03*
D10*
X168910000Y-82169000D03*
D12*
X171450000Y-87249000D03*
X177800000Y-84709000D03*
%TD*%
D13*
%TO.C,J9*%
X110490000Y-148209000D03*
D14*
X110490000Y-145669000D03*
X110490000Y-143129000D03*
X110490000Y-140589000D03*
X110490000Y-138049000D03*
X110490000Y-135509000D03*
X110490000Y-132969000D03*
X110490000Y-130429000D03*
X110490000Y-127889000D03*
X110490000Y-125349000D03*
X110490000Y-122809000D03*
X110490000Y-120269000D03*
X110490000Y-117729000D03*
X110490000Y-115189000D03*
X110490000Y-112649000D03*
%TD*%
D18*
%TO.C,Y1*%
X140208000Y-63447000D03*
X140208000Y-58547000D03*
%TD*%
D13*
%TO.C,J4*%
X95631000Y-135509000D03*
D14*
X98171000Y-135509000D03*
X95631000Y-138049000D03*
X98171000Y-138049000D03*
X95631000Y-140589000D03*
X98171000Y-140589000D03*
%TD*%
D10*
%TO.C,K7*%
X138430000Y-122809000D03*
D11*
X133350000Y-122809000D03*
D10*
X128270000Y-122809000D03*
D12*
X130810000Y-127889000D03*
X137160000Y-125349000D03*
%TD*%
D13*
%TO.C,J8*%
X113030000Y-148209000D03*
D14*
X113030000Y-145669000D03*
X113030000Y-143129000D03*
X113030000Y-140589000D03*
X113030000Y-138049000D03*
X113030000Y-135509000D03*
X113030000Y-132969000D03*
X113030000Y-130429000D03*
X113030000Y-127889000D03*
X113030000Y-125349000D03*
X113030000Y-122809000D03*
X113030000Y-120269000D03*
X113030000Y-117729000D03*
X113030000Y-115189000D03*
X113030000Y-112649000D03*
%TD*%
D15*
%TO.C,SW2*%
X179070000Y-61849000D03*
X179070000Y-64349000D03*
X179070000Y-59349000D03*
D19*
X181570000Y-67249000D03*
X181570000Y-56449000D03*
%TD*%
%LPD*%
M02*
