%TF.GenerationSoftware,KiCad,Pcbnew,7.0.7*%
%TF.CreationDate,2023-10-21T15:17:43+02:00*%
%TF.ProjectId,mpad,6d706164-2e6b-4696-9361-645f70636258,rev?*%
%TF.SameCoordinates,Original*%
%TF.FileFunction,Drillmap*%
%TF.FilePolarity,Positive*%
%FSLAX45Y45*%
G04 Gerber Fmt 4.5, Leading zero omitted, Abs format (unit mm)*
G04 Created by KiCad (PCBNEW 7.0.7) date 2023-10-21 15:17:43*
%MOMM*%
%LPD*%
G01*
G04 APERTURE LIST*
%ADD10C,0.150000*%
%ADD11C,0.200000*%
%ADD12C,0.040000*%
%ADD13C,0.080000*%
%ADD14C,0.100000*%
%ADD15C,0.149860*%
%ADD16C,0.210000*%
G04 APERTURE END LIST*
D10*
X10287000Y-9994900D02*
G75*
G03*
X10033000Y-10248900I0J-254000D01*
G01*
X11811000Y-12407900D02*
X11811000Y-11137900D01*
X11811000Y-9232900D02*
G75*
G03*
X11557000Y-8978900I-254000J0D01*
G01*
X11811000Y-15328900D02*
X11811000Y-13296900D01*
X12319000Y-15582900D02*
X18415000Y-15582900D01*
X11557000Y-9994900D02*
G75*
G03*
X11811000Y-9740900I0J254000D01*
G01*
X12065000Y-4660900D02*
X12065000Y-12407900D01*
X10287000Y-9994900D02*
X11557000Y-9994900D01*
X18669000Y-15328900D02*
X18669000Y-4660900D01*
X12319000Y-4406900D02*
G75*
G03*
X12065000Y-4660900I0J-254000D01*
G01*
X18415000Y-4406900D02*
X12319000Y-4406900D01*
X9017000Y-9232900D02*
X9017000Y-15328900D01*
X18669000Y-4660900D02*
G75*
G03*
X18415000Y-4406900I-254000J0D01*
G01*
X10287000Y-10883900D02*
X11557000Y-10883900D01*
X9271000Y-8978900D02*
G75*
G03*
X9017000Y-9232900I0J-254000D01*
G01*
X11811000Y-12407900D02*
G75*
G03*
X12065000Y-12407900I127000J0D01*
G01*
X18415000Y-15582900D02*
G75*
G03*
X18669000Y-15328900I0J254000D01*
G01*
X10033000Y-10629900D02*
G75*
G03*
X10287000Y-10883900I254000J0D01*
G01*
X11557000Y-8978900D02*
X9271000Y-8978900D01*
X11811000Y-11137900D02*
G75*
G03*
X11557000Y-10883900I-254000J0D01*
G01*
X10033000Y-10629900D02*
X10033000Y-10248900D01*
X11557000Y-15582900D02*
G75*
G03*
X11811000Y-15328900I0J254000D01*
G01*
X9017000Y-15328900D02*
G75*
G03*
X9271000Y-15582900I254000J0D01*
G01*
X12065000Y-15328900D02*
X12065000Y-13296900D01*
X12065000Y-15328900D02*
G75*
G03*
X12319000Y-15582900I254000J0D01*
G01*
X12065000Y-13296900D02*
G75*
G03*
X11811000Y-13296900I-127000J0D01*
G01*
D11*
X11811000Y-9740900D02*
X11811000Y-9232900D01*
D10*
X9271000Y-15582900D02*
X11557000Y-15582900D01*
D11*
D12*
X9251000Y-14292900D02*
X9291000Y-14332900D01*
X9291000Y-14292900D02*
X9251000Y-14332900D01*
X11854500Y-12641900D02*
X11894500Y-12681900D01*
X11894500Y-12641900D02*
X11854500Y-12681900D01*
X11854500Y-12768900D02*
X11894500Y-12808900D01*
X11894500Y-12768900D02*
X11854500Y-12808900D01*
X11854500Y-12895900D02*
X11894500Y-12935900D01*
X11894500Y-12895900D02*
X11854500Y-12935900D01*
X11854500Y-13022900D02*
X11894500Y-13062900D01*
X11894500Y-13022900D02*
X11854500Y-13062900D01*
X11981500Y-12641900D02*
X12021500Y-12681900D01*
X12021500Y-12641900D02*
X11981500Y-12681900D01*
X11981500Y-12768900D02*
X12021500Y-12808900D01*
X12021500Y-12768900D02*
X11981500Y-12808900D01*
X11981500Y-12895900D02*
X12021500Y-12935900D01*
X12021500Y-12895900D02*
X11981500Y-12935900D01*
X11981500Y-13022900D02*
X12021500Y-13062900D01*
X12021500Y-13022900D02*
X11981500Y-13062900D01*
X12299000Y-4640900D02*
X12339000Y-4680900D01*
X12339000Y-4640900D02*
X12299000Y-4680900D01*
X12299000Y-15054900D02*
X12339000Y-15094900D01*
X12339000Y-15054900D02*
X12299000Y-15094900D01*
X12299000Y-15308900D02*
X12339000Y-15348900D01*
X12339000Y-15308900D02*
X12299000Y-15348900D01*
X12375200Y-8019100D02*
X12415200Y-8059100D01*
X12415200Y-8019100D02*
X12375200Y-8059100D01*
X12375200Y-10152700D02*
X12415200Y-10192700D01*
X12415200Y-10152700D02*
X12375200Y-10192700D01*
X12375200Y-12083100D02*
X12415200Y-12123100D01*
X12415200Y-12083100D02*
X12375200Y-12123100D01*
X12375200Y-14140500D02*
X12415200Y-14180500D01*
X12415200Y-14140500D02*
X12375200Y-14180500D01*
X12489500Y-7346000D02*
X12529500Y-7386000D01*
X12529500Y-7346000D02*
X12489500Y-7386000D01*
X12527600Y-11448100D02*
X12567600Y-11488100D01*
X12567600Y-11448100D02*
X12527600Y-11488100D01*
X12553000Y-9212900D02*
X12593000Y-9252900D01*
X12593000Y-9212900D02*
X12553000Y-9252900D01*
X12553000Y-15308900D02*
X12593000Y-15348900D01*
X12593000Y-15308900D02*
X12553000Y-15348900D01*
X12807000Y-5148900D02*
X12847000Y-5188900D01*
X12847000Y-5148900D02*
X12807000Y-5188900D01*
X12807000Y-15308900D02*
X12847000Y-15348900D01*
X12847000Y-15308900D02*
X12807000Y-15348900D01*
X12857800Y-7358700D02*
X12897800Y-7398700D01*
X12897800Y-7358700D02*
X12857800Y-7398700D01*
X12908600Y-4920300D02*
X12948600Y-4960300D01*
X12948600Y-4920300D02*
X12908600Y-4960300D01*
X12984800Y-13276900D02*
X13024800Y-13316900D01*
X13024800Y-13276900D02*
X12984800Y-13316900D01*
X13061000Y-5148900D02*
X13101000Y-5188900D01*
X13101000Y-5148900D02*
X13061000Y-5188900D01*
X13061000Y-9212900D02*
X13101000Y-9252900D01*
X13101000Y-9212900D02*
X13061000Y-9252900D01*
X13061000Y-15308900D02*
X13101000Y-15348900D01*
X13101000Y-15308900D02*
X13061000Y-15348900D01*
X13111800Y-6698300D02*
X13151800Y-6738300D01*
X13151800Y-6698300D02*
X13111800Y-6738300D01*
X13309185Y-6500915D02*
X13349185Y-6540915D01*
X13349185Y-6500915D02*
X13309185Y-6540915D01*
X13315000Y-15308900D02*
X13355000Y-15348900D01*
X13355000Y-15308900D02*
X13315000Y-15348900D01*
X13340400Y-5500750D02*
X13380400Y-5540750D01*
X13380400Y-5500750D02*
X13340400Y-5540750D01*
X13569000Y-5910900D02*
X13609000Y-5950900D01*
X13609000Y-5910900D02*
X13569000Y-5950900D01*
X13569000Y-6164900D02*
X13609000Y-6204900D01*
X13609000Y-6164900D02*
X13569000Y-6204900D01*
X13569000Y-6418900D02*
X13609000Y-6458900D01*
X13609000Y-6418900D02*
X13569000Y-6458900D01*
X13569000Y-15308900D02*
X13609000Y-15348900D01*
X13609000Y-15308900D02*
X13569000Y-15348900D01*
X13823000Y-5656900D02*
X13863000Y-5696900D01*
X13863000Y-5656900D02*
X13823000Y-5696900D01*
X13823000Y-5910900D02*
X13863000Y-5950900D01*
X13863000Y-5910900D02*
X13823000Y-5950900D01*
X13823000Y-6164900D02*
X13863000Y-6204900D01*
X13863000Y-6164900D02*
X13823000Y-6204900D01*
X13823000Y-9212900D02*
X13863000Y-9252900D01*
X13863000Y-9212900D02*
X13823000Y-9252900D01*
X13823000Y-11244900D02*
X13863000Y-11284900D01*
X13863000Y-11244900D02*
X13823000Y-11284900D01*
X13823000Y-15308900D02*
X13863000Y-15348900D01*
X13863000Y-15308900D02*
X13823000Y-15348900D01*
X14077000Y-11244900D02*
X14117000Y-11284900D01*
X14117000Y-11244900D02*
X14077000Y-11284900D01*
X14077000Y-11752900D02*
X14117000Y-11792900D01*
X14117000Y-11752900D02*
X14077000Y-11792900D01*
X14077000Y-13784900D02*
X14117000Y-13824900D01*
X14117000Y-13784900D02*
X14077000Y-13824900D01*
X14077000Y-14038900D02*
X14117000Y-14078900D01*
X14117000Y-14038900D02*
X14077000Y-14078900D01*
X14077000Y-15308900D02*
X14117000Y-15348900D01*
X14117000Y-15308900D02*
X14077000Y-15348900D01*
X14216700Y-7930200D02*
X14256700Y-7970200D01*
X14256700Y-7930200D02*
X14216700Y-7970200D01*
X14331000Y-11244900D02*
X14371000Y-11284900D01*
X14371000Y-11244900D02*
X14331000Y-11284900D01*
X14331000Y-15308900D02*
X14371000Y-15348900D01*
X14371000Y-15308900D02*
X14331000Y-15348900D01*
X14407200Y-10127300D02*
X14447200Y-10167300D01*
X14447200Y-10127300D02*
X14407200Y-10167300D01*
X14407200Y-12235500D02*
X14447200Y-12275500D01*
X14447200Y-12235500D02*
X14407200Y-12275500D01*
X14407200Y-14191300D02*
X14447200Y-14231300D01*
X14447200Y-14191300D02*
X14407200Y-14231300D01*
X14432600Y-8146100D02*
X14472600Y-8186100D01*
X14472600Y-8146100D02*
X14432600Y-8186100D01*
X14483400Y-7231700D02*
X14523400Y-7271700D01*
X14523400Y-7231700D02*
X14483400Y-7271700D01*
X14559600Y-4640900D02*
X14599600Y-4680900D01*
X14599600Y-4640900D02*
X14559600Y-4680900D01*
X14585000Y-9212900D02*
X14625000Y-9252900D01*
X14625000Y-9212900D02*
X14585000Y-9252900D01*
X14585000Y-11244900D02*
X14625000Y-11284900D01*
X14625000Y-11244900D02*
X14585000Y-11284900D01*
X14585000Y-15308900D02*
X14625000Y-15348900D01*
X14625000Y-15308900D02*
X14585000Y-15348900D01*
X14635800Y-7358700D02*
X14675800Y-7398700D01*
X14675800Y-7358700D02*
X14635800Y-7398700D01*
X14686600Y-6901500D02*
X14726600Y-6941500D01*
X14726600Y-6901500D02*
X14686600Y-6941500D01*
X14839000Y-11778300D02*
X14879000Y-11818300D01*
X14879000Y-11778300D02*
X14839000Y-11818300D01*
X14839000Y-13810300D02*
X14879000Y-13850300D01*
X14879000Y-13810300D02*
X14839000Y-13850300D01*
X14839000Y-15308900D02*
X14879000Y-15348900D01*
X14879000Y-15308900D02*
X14839000Y-15348900D01*
X14889800Y-6723700D02*
X14929800Y-6763700D01*
X14929800Y-6723700D02*
X14889800Y-6763700D01*
X14966000Y-5936300D02*
X15006000Y-5976300D01*
X15006000Y-5936300D02*
X14966000Y-5976300D01*
X15058591Y-5823900D02*
X15098591Y-5863900D01*
X15098591Y-5823900D02*
X15058591Y-5863900D01*
X15093000Y-9212900D02*
X15133000Y-9252900D01*
X15133000Y-9212900D02*
X15093000Y-9252900D01*
X15093000Y-11244900D02*
X15133000Y-11284900D01*
X15133000Y-11244900D02*
X15093000Y-11284900D01*
X15093000Y-15308900D02*
X15133000Y-15348900D01*
X15133000Y-15308900D02*
X15093000Y-15348900D01*
X15143800Y-6114100D02*
X15183800Y-6154100D01*
X15183800Y-6114100D02*
X15143800Y-6154100D01*
X15169200Y-6444300D02*
X15209200Y-6484300D01*
X15209200Y-6444300D02*
X15169200Y-6484300D01*
X15170525Y-5833375D02*
X15210525Y-5873375D01*
X15210525Y-5833375D02*
X15170525Y-5873375D01*
X15270370Y-5860530D02*
X15310370Y-5900530D01*
X15310370Y-5860530D02*
X15270370Y-5900530D01*
X15347000Y-4640900D02*
X15387000Y-4680900D01*
X15387000Y-4640900D02*
X15347000Y-4680900D01*
X15347000Y-15308900D02*
X15387000Y-15348900D01*
X15387000Y-15308900D02*
X15347000Y-15348900D01*
X15397000Y-6088700D02*
X15437000Y-6128700D01*
X15437000Y-6088700D02*
X15397000Y-6128700D01*
X15524800Y-6368100D02*
X15564800Y-6408100D01*
X15564800Y-6368100D02*
X15524800Y-6408100D01*
X15601000Y-7180900D02*
X15641000Y-7220900D01*
X15641000Y-7180900D02*
X15601000Y-7220900D01*
X15601000Y-15308900D02*
X15641000Y-15348900D01*
X15641000Y-15308900D02*
X15601000Y-15348900D01*
X15728000Y-7292390D02*
X15768000Y-7332390D01*
X15768000Y-7292390D02*
X15728000Y-7332390D01*
X15753400Y-5936300D02*
X15793400Y-5976300D01*
X15793400Y-5936300D02*
X15753400Y-5976300D01*
X15855000Y-7866700D02*
X15895000Y-7906700D01*
X15895000Y-7866700D02*
X15855000Y-7906700D01*
X15855000Y-11244900D02*
X15895000Y-11284900D01*
X15895000Y-11244900D02*
X15855000Y-11284900D01*
X15855000Y-15308900D02*
X15895000Y-15348900D01*
X15895000Y-15308900D02*
X15855000Y-15348900D01*
X15880400Y-9314500D02*
X15920400Y-9354500D01*
X15920400Y-9314500D02*
X15880400Y-9354500D01*
X15893530Y-7396370D02*
X15933530Y-7436370D01*
X15933530Y-7396370D02*
X15893530Y-7436370D01*
X15956600Y-11524300D02*
X15996600Y-11564300D01*
X15996600Y-11524300D02*
X15956600Y-11564300D01*
X16032800Y-4971100D02*
X16072800Y-5011100D01*
X16072800Y-4971100D02*
X16032800Y-5011100D01*
X16032800Y-6622100D02*
X16072800Y-6662100D01*
X16072800Y-6622100D02*
X16032800Y-6662100D01*
X16058200Y-6368100D02*
X16098200Y-6408100D01*
X16098200Y-6368100D02*
X16058200Y-6408100D01*
X16058200Y-7460300D02*
X16098200Y-7500300D01*
X16098200Y-7460300D02*
X16058200Y-7500300D01*
X16109000Y-4640900D02*
X16149000Y-4680900D01*
X16149000Y-4640900D02*
X16109000Y-4680900D01*
X16109000Y-12006900D02*
X16149000Y-12046900D01*
X16149000Y-12006900D02*
X16109000Y-12046900D01*
X16109000Y-13784900D02*
X16149000Y-13824900D01*
X16149000Y-13784900D02*
X16109000Y-13824900D01*
X16109000Y-15308900D02*
X16149000Y-15348900D01*
X16149000Y-15308900D02*
X16109000Y-15348900D01*
X16157750Y-6571300D02*
X16197750Y-6611300D01*
X16197750Y-6571300D02*
X16157750Y-6611300D01*
X16159800Y-5834700D02*
X16199800Y-5874700D01*
X16199800Y-5834700D02*
X16159800Y-5874700D01*
X16363000Y-4640900D02*
X16403000Y-4680900D01*
X16403000Y-4640900D02*
X16363000Y-4680900D01*
X16363000Y-13022900D02*
X16403000Y-13062900D01*
X16403000Y-13022900D02*
X16363000Y-13062900D01*
X16363000Y-15308900D02*
X16403000Y-15348900D01*
X16403000Y-15308900D02*
X16363000Y-15348900D01*
X16439200Y-14191300D02*
X16479200Y-14231300D01*
X16479200Y-14191300D02*
X16439200Y-14231300D01*
X16464600Y-6850700D02*
X16504600Y-6890700D01*
X16504600Y-6850700D02*
X16464600Y-6890700D01*
X16464600Y-7460300D02*
X16504600Y-7500300D01*
X16504600Y-7460300D02*
X16464600Y-7500300D01*
X16617000Y-5402900D02*
X16657000Y-5442900D01*
X16657000Y-5402900D02*
X16617000Y-5442900D01*
X16617000Y-7942900D02*
X16657000Y-7982900D01*
X16657000Y-7942900D02*
X16617000Y-7982900D01*
X16617000Y-9212900D02*
X16657000Y-9252900D01*
X16657000Y-9212900D02*
X16617000Y-9252900D01*
X16617000Y-11244900D02*
X16657000Y-11284900D01*
X16657000Y-11244900D02*
X16617000Y-11284900D01*
X16617000Y-15308900D02*
X16657000Y-15348900D01*
X16657000Y-15308900D02*
X16617000Y-15348900D01*
X16871000Y-6672900D02*
X16911000Y-6712900D01*
X16911000Y-6672900D02*
X16871000Y-6712900D01*
X16871000Y-7714300D02*
X16911000Y-7754300D01*
X16911000Y-7714300D02*
X16871000Y-7754300D01*
X16871000Y-9746300D02*
X16911000Y-9786300D01*
X16911000Y-9746300D02*
X16871000Y-9786300D01*
X16871000Y-11778300D02*
X16911000Y-11818300D01*
X16911000Y-11778300D02*
X16871000Y-11818300D01*
X16871000Y-13810300D02*
X16911000Y-13850300D01*
X16911000Y-13810300D02*
X16871000Y-13850300D01*
X16871000Y-15308900D02*
X16911000Y-15348900D01*
X16911000Y-15308900D02*
X16871000Y-15348900D01*
X16921800Y-5529900D02*
X16961800Y-5569900D01*
X16961800Y-5529900D02*
X16921800Y-5569900D01*
X17099600Y-5453700D02*
X17139600Y-5493700D01*
X17139600Y-5453700D02*
X17099600Y-5493700D01*
X17099600Y-7536500D02*
X17139600Y-7576500D01*
X17139600Y-7536500D02*
X17099600Y-7576500D01*
X17125000Y-9212900D02*
X17165000Y-9252900D01*
X17165000Y-9212900D02*
X17125000Y-9252900D01*
X17125000Y-11244900D02*
X17165000Y-11284900D01*
X17165000Y-11244900D02*
X17125000Y-11284900D01*
X17125000Y-15308900D02*
X17165000Y-15348900D01*
X17165000Y-15308900D02*
X17125000Y-15348900D01*
X17201200Y-6088700D02*
X17241200Y-6128700D01*
X17241200Y-6088700D02*
X17201200Y-6128700D01*
X17379000Y-15308900D02*
X17419000Y-15348900D01*
X17419000Y-15308900D02*
X17379000Y-15348900D01*
X17429800Y-5352100D02*
X17469800Y-5392100D01*
X17469800Y-5352100D02*
X17429800Y-5392100D01*
X17429800Y-6088700D02*
X17469800Y-6128700D01*
X17469800Y-6088700D02*
X17429800Y-6128700D01*
X17633000Y-6330000D02*
X17673000Y-6370000D01*
X17673000Y-6330000D02*
X17633000Y-6370000D01*
X17633000Y-15308900D02*
X17673000Y-15348900D01*
X17673000Y-15308900D02*
X17633000Y-15348900D01*
X17709200Y-5682300D02*
X17749200Y-5722300D01*
X17749200Y-5682300D02*
X17709200Y-5722300D01*
X17887000Y-4640900D02*
X17927000Y-4680900D01*
X17927000Y-4640900D02*
X17887000Y-4680900D01*
X17887000Y-9212900D02*
X17927000Y-9252900D01*
X17927000Y-9212900D02*
X17887000Y-9252900D01*
X17887000Y-11244900D02*
X17927000Y-11284900D01*
X17927000Y-11244900D02*
X17887000Y-11284900D01*
X17887000Y-15308900D02*
X17927000Y-15348900D01*
X17927000Y-15308900D02*
X17887000Y-15348900D01*
X17988600Y-13810300D02*
X18028600Y-13850300D01*
X18028600Y-13810300D02*
X17988600Y-13850300D01*
X18039400Y-13200700D02*
X18079400Y-13240700D01*
X18079400Y-13200700D02*
X18039400Y-13240700D01*
X18090200Y-13353100D02*
X18130200Y-13393100D01*
X18130200Y-13353100D02*
X18090200Y-13393100D01*
X18141000Y-4640900D02*
X18181000Y-4680900D01*
X18181000Y-4640900D02*
X18141000Y-4680900D01*
X18141000Y-4894900D02*
X18181000Y-4934900D01*
X18181000Y-4894900D02*
X18141000Y-4934900D01*
X18141000Y-5148900D02*
X18181000Y-5188900D01*
X18181000Y-5148900D02*
X18141000Y-5188900D01*
X18141000Y-15054900D02*
X18181000Y-15094900D01*
X18181000Y-15054900D02*
X18141000Y-15094900D01*
X18141000Y-15308900D02*
X18181000Y-15348900D01*
X18181000Y-15308900D02*
X18141000Y-15348900D01*
X18395000Y-4640900D02*
X18435000Y-4680900D01*
X18435000Y-4640900D02*
X18395000Y-4680900D01*
X18395000Y-4894900D02*
X18435000Y-4934900D01*
X18435000Y-4894900D02*
X18395000Y-4934900D01*
X18395000Y-5148900D02*
X18435000Y-5188900D01*
X18435000Y-5148900D02*
X18395000Y-5188900D01*
X18395000Y-6164900D02*
X18435000Y-6204900D01*
X18435000Y-6164900D02*
X18395000Y-6204900D01*
X18395000Y-7180900D02*
X18435000Y-7220900D01*
X18435000Y-7180900D02*
X18395000Y-7220900D01*
X18395000Y-14038900D02*
X18435000Y-14078900D01*
X18435000Y-14038900D02*
X18395000Y-14078900D01*
X18395000Y-14292900D02*
X18435000Y-14332900D01*
X18435000Y-14292900D02*
X18395000Y-14332900D01*
X18395000Y-14546900D02*
X18435000Y-14586900D01*
X18435000Y-14546900D02*
X18395000Y-14586900D01*
X18395000Y-14800900D02*
X18435000Y-14840900D01*
X18435000Y-14800900D02*
X18395000Y-14840900D01*
X18395000Y-15054900D02*
X18435000Y-15094900D01*
X18435000Y-15054900D02*
X18395000Y-15094900D01*
X18395000Y-15308900D02*
X18435000Y-15348900D01*
X18435000Y-15308900D02*
X18395000Y-15348900D01*
D13*
X14060800Y-5854700D02*
G75*
G03*
X14060800Y-5854700I-40000J0D01*
G01*
X14060800Y-6344700D02*
G75*
G03*
X14060800Y-6344700I-40000J0D01*
G01*
D14*
X9563100Y-13500900D02*
X9563100Y-13600900D01*
X9513100Y-13550900D02*
X9613100Y-13550900D01*
X9563100Y-13754900D02*
X9563100Y-13854900D01*
X9513100Y-13804900D02*
X9613100Y-13804900D01*
X9563100Y-14008900D02*
X9563100Y-14108900D01*
X9513100Y-14058900D02*
X9613100Y-14058900D01*
X9817100Y-13500900D02*
X9817100Y-13600900D01*
X9767100Y-13550900D02*
X9867100Y-13550900D01*
X9817100Y-13754900D02*
X9817100Y-13854900D01*
X9767100Y-13804900D02*
X9867100Y-13804900D01*
X9817100Y-14008900D02*
X9817100Y-14108900D01*
X9767100Y-14058900D02*
X9867100Y-14058900D01*
X10045700Y-15050300D02*
X10045700Y-15150300D01*
X9995700Y-15100300D02*
X10095700Y-15100300D01*
X10287000Y-11214900D02*
X10287000Y-11314900D01*
X10237000Y-11264900D02*
X10337000Y-11264900D01*
X10287000Y-11468900D02*
X10287000Y-11568900D01*
X10237000Y-11518900D02*
X10337000Y-11518900D01*
X10287000Y-11722900D02*
X10287000Y-11822900D01*
X10237000Y-11772900D02*
X10337000Y-11772900D01*
X10287000Y-11976900D02*
X10287000Y-12076900D01*
X10237000Y-12026900D02*
X10337000Y-12026900D01*
X10287000Y-12230900D02*
X10287000Y-12330900D01*
X10237000Y-12280900D02*
X10337000Y-12280900D01*
X10287000Y-12484900D02*
X10287000Y-12584900D01*
X10237000Y-12534900D02*
X10337000Y-12534900D01*
X10287000Y-12738900D02*
X10287000Y-12838900D01*
X10237000Y-12788900D02*
X10337000Y-12788900D01*
X10287000Y-12992900D02*
X10287000Y-13092900D01*
X10237000Y-13042900D02*
X10337000Y-13042900D01*
X10287000Y-13246900D02*
X10287000Y-13346900D01*
X10237000Y-13296900D02*
X10337000Y-13296900D01*
X10287000Y-13500900D02*
X10287000Y-13600900D01*
X10237000Y-13550900D02*
X10337000Y-13550900D01*
X10287000Y-13754900D02*
X10287000Y-13854900D01*
X10237000Y-13804900D02*
X10337000Y-13804900D01*
X10287000Y-14008900D02*
X10287000Y-14108900D01*
X10237000Y-14058900D02*
X10337000Y-14058900D01*
X10287000Y-14262900D02*
X10287000Y-14362900D01*
X10237000Y-14312900D02*
X10337000Y-14312900D01*
X10287000Y-14516900D02*
X10287000Y-14616900D01*
X10237000Y-14566900D02*
X10337000Y-14566900D01*
X10287000Y-14770900D02*
X10287000Y-14870900D01*
X10237000Y-14820900D02*
X10337000Y-14820900D01*
X10299700Y-15050300D02*
X10299700Y-15150300D01*
X10249700Y-15100300D02*
X10349700Y-15100300D01*
X10541000Y-11214900D02*
X10541000Y-11314900D01*
X10491000Y-11264900D02*
X10591000Y-11264900D01*
X10541000Y-11468900D02*
X10541000Y-11568900D01*
X10491000Y-11518900D02*
X10591000Y-11518900D01*
X10541000Y-11722900D02*
X10541000Y-11822900D01*
X10491000Y-11772900D02*
X10591000Y-11772900D01*
X10541000Y-11976900D02*
X10541000Y-12076900D01*
X10491000Y-12026900D02*
X10591000Y-12026900D01*
X10541000Y-12230900D02*
X10541000Y-12330900D01*
X10491000Y-12280900D02*
X10591000Y-12280900D01*
X10541000Y-12484900D02*
X10541000Y-12584900D01*
X10491000Y-12534900D02*
X10591000Y-12534900D01*
X10541000Y-12738900D02*
X10541000Y-12838900D01*
X10491000Y-12788900D02*
X10591000Y-12788900D01*
X10541000Y-12992900D02*
X10541000Y-13092900D01*
X10491000Y-13042900D02*
X10591000Y-13042900D01*
X10541000Y-13246900D02*
X10541000Y-13346900D01*
X10491000Y-13296900D02*
X10591000Y-13296900D01*
X10541000Y-13500900D02*
X10541000Y-13600900D01*
X10491000Y-13550900D02*
X10591000Y-13550900D01*
X10541000Y-13754900D02*
X10541000Y-13854900D01*
X10491000Y-13804900D02*
X10591000Y-13804900D01*
X10541000Y-14008900D02*
X10541000Y-14108900D01*
X10491000Y-14058900D02*
X10591000Y-14058900D01*
X10541000Y-14262900D02*
X10541000Y-14362900D01*
X10491000Y-14312900D02*
X10591000Y-14312900D01*
X10541000Y-14516900D02*
X10541000Y-14616900D01*
X10491000Y-14566900D02*
X10591000Y-14566900D01*
X10541000Y-14770900D02*
X10541000Y-14870900D01*
X10491000Y-14820900D02*
X10591000Y-14820900D01*
X10553700Y-10986300D02*
X10553700Y-11086300D01*
X10503700Y-11036300D02*
X10603700Y-11036300D01*
X10553700Y-15050300D02*
X10553700Y-15150300D01*
X10503700Y-15100300D02*
X10603700Y-15100300D01*
X10557700Y-9716300D02*
X10557700Y-9816300D01*
X10507700Y-9766300D02*
X10607700Y-9766300D01*
X10795000Y-11214900D02*
X10795000Y-11314900D01*
X10745000Y-11264900D02*
X10845000Y-11264900D01*
X10795000Y-11468900D02*
X10795000Y-11568900D01*
X10745000Y-11518900D02*
X10845000Y-11518900D01*
X10795000Y-11722900D02*
X10795000Y-11822900D01*
X10745000Y-11772900D02*
X10845000Y-11772900D01*
X10795000Y-11976900D02*
X10795000Y-12076900D01*
X10745000Y-12026900D02*
X10845000Y-12026900D01*
X10795000Y-12230900D02*
X10795000Y-12330900D01*
X10745000Y-12280900D02*
X10845000Y-12280900D01*
X10795000Y-12484900D02*
X10795000Y-12584900D01*
X10745000Y-12534900D02*
X10845000Y-12534900D01*
X10795000Y-12738900D02*
X10795000Y-12838900D01*
X10745000Y-12788900D02*
X10845000Y-12788900D01*
X10795000Y-12992900D02*
X10795000Y-13092900D01*
X10745000Y-13042900D02*
X10845000Y-13042900D01*
X10795000Y-13246900D02*
X10795000Y-13346900D01*
X10745000Y-13296900D02*
X10845000Y-13296900D01*
X10795000Y-13500900D02*
X10795000Y-13600900D01*
X10745000Y-13550900D02*
X10845000Y-13550900D01*
X10795000Y-13754900D02*
X10795000Y-13854900D01*
X10745000Y-13804900D02*
X10845000Y-13804900D01*
X10795000Y-14008900D02*
X10795000Y-14108900D01*
X10745000Y-14058900D02*
X10845000Y-14058900D01*
X10795000Y-14262900D02*
X10795000Y-14362900D01*
X10745000Y-14312900D02*
X10845000Y-14312900D01*
X10795000Y-14516900D02*
X10795000Y-14616900D01*
X10745000Y-14566900D02*
X10845000Y-14566900D01*
X10795000Y-14770900D02*
X10795000Y-14870900D01*
X10745000Y-14820900D02*
X10845000Y-14820900D01*
X10807700Y-9716300D02*
X10807700Y-9816300D01*
X10757700Y-9766300D02*
X10857700Y-9766300D01*
X10807700Y-10986300D02*
X10807700Y-11086300D01*
X10757700Y-11036300D02*
X10857700Y-11036300D01*
X10807700Y-15050300D02*
X10807700Y-15150300D01*
X10757700Y-15100300D02*
X10857700Y-15100300D01*
X11049000Y-11214900D02*
X11049000Y-11314900D01*
X10999000Y-11264900D02*
X11099000Y-11264900D01*
X11049000Y-11468900D02*
X11049000Y-11568900D01*
X10999000Y-11518900D02*
X11099000Y-11518900D01*
X11049000Y-11722900D02*
X11049000Y-11822900D01*
X10999000Y-11772900D02*
X11099000Y-11772900D01*
X11049000Y-11976900D02*
X11049000Y-12076900D01*
X10999000Y-12026900D02*
X11099000Y-12026900D01*
X11049000Y-12230900D02*
X11049000Y-12330900D01*
X10999000Y-12280900D02*
X11099000Y-12280900D01*
X11049000Y-12484900D02*
X11049000Y-12584900D01*
X10999000Y-12534900D02*
X11099000Y-12534900D01*
X11049000Y-12738900D02*
X11049000Y-12838900D01*
X10999000Y-12788900D02*
X11099000Y-12788900D01*
X11049000Y-12992900D02*
X11049000Y-13092900D01*
X10999000Y-13042900D02*
X11099000Y-13042900D01*
X11049000Y-13246900D02*
X11049000Y-13346900D01*
X10999000Y-13296900D02*
X11099000Y-13296900D01*
X11049000Y-13500900D02*
X11049000Y-13600900D01*
X10999000Y-13550900D02*
X11099000Y-13550900D01*
X11049000Y-13754900D02*
X11049000Y-13854900D01*
X10999000Y-13804900D02*
X11099000Y-13804900D01*
X11049000Y-14008900D02*
X11049000Y-14108900D01*
X10999000Y-14058900D02*
X11099000Y-14058900D01*
X11049000Y-14262900D02*
X11049000Y-14362900D01*
X10999000Y-14312900D02*
X11099000Y-14312900D01*
X11049000Y-14516900D02*
X11049000Y-14616900D01*
X10999000Y-14566900D02*
X11099000Y-14566900D01*
X11049000Y-14770900D02*
X11049000Y-14870900D01*
X10999000Y-14820900D02*
X11099000Y-14820900D01*
X11057700Y-9716300D02*
X11057700Y-9816300D01*
X11007700Y-9766300D02*
X11107700Y-9766300D01*
X11061700Y-10986300D02*
X11061700Y-11086300D01*
X11011700Y-11036300D02*
X11111700Y-11036300D01*
X11061700Y-15050300D02*
X11061700Y-15150300D01*
X11011700Y-15100300D02*
X11111700Y-15100300D01*
X11303000Y-11214900D02*
X11303000Y-11314900D01*
X11253000Y-11264900D02*
X11353000Y-11264900D01*
X11303000Y-11468900D02*
X11303000Y-11568900D01*
X11253000Y-11518900D02*
X11353000Y-11518900D01*
X11303000Y-11722900D02*
X11303000Y-11822900D01*
X11253000Y-11772900D02*
X11353000Y-11772900D01*
X11303000Y-11976900D02*
X11303000Y-12076900D01*
X11253000Y-12026900D02*
X11353000Y-12026900D01*
X11303000Y-12230900D02*
X11303000Y-12330900D01*
X11253000Y-12280900D02*
X11353000Y-12280900D01*
X11303000Y-12484900D02*
X11303000Y-12584900D01*
X11253000Y-12534900D02*
X11353000Y-12534900D01*
X11303000Y-12738900D02*
X11303000Y-12838900D01*
X11253000Y-12788900D02*
X11353000Y-12788900D01*
X11303000Y-12992900D02*
X11303000Y-13092900D01*
X11253000Y-13042900D02*
X11353000Y-13042900D01*
X11303000Y-13246900D02*
X11303000Y-13346900D01*
X11253000Y-13296900D02*
X11353000Y-13296900D01*
X11303000Y-13500900D02*
X11303000Y-13600900D01*
X11253000Y-13550900D02*
X11353000Y-13550900D01*
X11303000Y-13754900D02*
X11303000Y-13854900D01*
X11253000Y-13804900D02*
X11353000Y-13804900D01*
X11303000Y-14008900D02*
X11303000Y-14108900D01*
X11253000Y-14058900D02*
X11353000Y-14058900D01*
X11303000Y-14262900D02*
X11303000Y-14362900D01*
X11253000Y-14312900D02*
X11353000Y-14312900D01*
X11303000Y-14516900D02*
X11303000Y-14616900D01*
X11253000Y-14566900D02*
X11353000Y-14566900D01*
X11303000Y-14770900D02*
X11303000Y-14870900D01*
X11253000Y-14820900D02*
X11353000Y-14820900D01*
X11315700Y-10986300D02*
X11315700Y-11086300D01*
X11265700Y-11036300D02*
X11365700Y-11036300D01*
X11315700Y-15050300D02*
X11315700Y-15150300D01*
X11265700Y-15100300D02*
X11365700Y-15100300D01*
X12573000Y-5372900D02*
X12573000Y-5472900D01*
X12523000Y-5422900D02*
X12623000Y-5422900D01*
X12573000Y-5626900D02*
X12573000Y-5726900D01*
X12523000Y-5676900D02*
X12623000Y-5676900D01*
X12573000Y-5880900D02*
X12573000Y-5980900D01*
X12523000Y-5930900D02*
X12623000Y-5930900D01*
X12573000Y-6134900D02*
X12573000Y-6234900D01*
X12523000Y-6184900D02*
X12623000Y-6184900D01*
X12573000Y-6388900D02*
X12573000Y-6488900D01*
X12523000Y-6438900D02*
X12623000Y-6438900D01*
X12573000Y-6642900D02*
X12573000Y-6742900D01*
X12523000Y-6692900D02*
X12623000Y-6692900D01*
X13614400Y-4890300D02*
X13614400Y-4990300D01*
X13564400Y-4940300D02*
X13664400Y-4940300D01*
X13614400Y-5144300D02*
X13614400Y-5244300D01*
X13564400Y-5194300D02*
X13664400Y-5194300D01*
X13868400Y-4890300D02*
X13868400Y-4990300D01*
X13818400Y-4940300D02*
X13918400Y-4940300D01*
X13868400Y-5144300D02*
X13868400Y-5244300D01*
X13818400Y-5194300D02*
X13918400Y-5194300D01*
X14122400Y-4890300D02*
X14122400Y-4990300D01*
X14072400Y-4940300D02*
X14172400Y-4940300D01*
X14122400Y-5144300D02*
X14122400Y-5244300D01*
X14072400Y-5194300D02*
X14172400Y-5194300D01*
X16637000Y-5880900D02*
X16637000Y-5980900D01*
X16587000Y-5930900D02*
X16687000Y-5930900D01*
X16637000Y-6134900D02*
X16637000Y-6234900D01*
X16587000Y-6184900D02*
X16687000Y-6184900D01*
X16637000Y-6388900D02*
X16637000Y-6488900D01*
X16587000Y-6438900D02*
X16687000Y-6438900D01*
X16637000Y-6642900D02*
X16637000Y-6742900D01*
X16587000Y-6692900D02*
X16687000Y-6692900D01*
X17907000Y-5884900D02*
X17907000Y-5984900D01*
X17857000Y-5934900D02*
X17957000Y-5934900D01*
X17907000Y-6134900D02*
X17907000Y-6234900D01*
X17857000Y-6184900D02*
X17957000Y-6184900D01*
X17907000Y-6384900D02*
X17907000Y-6484900D01*
X17857000Y-6434900D02*
X17957000Y-6434900D01*
D15*
X13133984Y-8777884D02*
X13133984Y-8671916D01*
X13028016Y-8671916D01*
X13028016Y-8777884D01*
X13133984Y-8777884D01*
X13133984Y-10809884D02*
X13133984Y-10703916D01*
X13028016Y-10703916D01*
X13028016Y-10809884D01*
X13133984Y-10809884D01*
X13133984Y-12841884D02*
X13133984Y-12735916D01*
X13028016Y-12735916D01*
X13028016Y-12841884D01*
X13133984Y-12841884D01*
X13133984Y-14873884D02*
X13133984Y-14767916D01*
X13028016Y-14767916D01*
X13028016Y-14873884D01*
X13133984Y-14873884D01*
X13768984Y-8523884D02*
X13768984Y-8417916D01*
X13663016Y-8417916D01*
X13663016Y-8523884D01*
X13768984Y-8523884D01*
X13768984Y-10555884D02*
X13768984Y-10449916D01*
X13663016Y-10449916D01*
X13663016Y-10555884D01*
X13768984Y-10555884D01*
X13768984Y-12587884D02*
X13768984Y-12481916D01*
X13663016Y-12481916D01*
X13663016Y-12587884D01*
X13768984Y-12587884D01*
X13768984Y-14619884D02*
X13768984Y-14513916D01*
X13663016Y-14513916D01*
X13663016Y-14619884D01*
X13768984Y-14619884D01*
X15165984Y-8777884D02*
X15165984Y-8671916D01*
X15060016Y-8671916D01*
X15060016Y-8777884D01*
X15165984Y-8777884D01*
X15165984Y-10809884D02*
X15165984Y-10703916D01*
X15060016Y-10703916D01*
X15060016Y-10809884D01*
X15165984Y-10809884D01*
X15165984Y-12841884D02*
X15165984Y-12735916D01*
X15060016Y-12735916D01*
X15060016Y-12841884D01*
X15165984Y-12841884D01*
X15165984Y-14873884D02*
X15165984Y-14767916D01*
X15060016Y-14767916D01*
X15060016Y-14873884D01*
X15165984Y-14873884D01*
X15800984Y-8523884D02*
X15800984Y-8417916D01*
X15695016Y-8417916D01*
X15695016Y-8523884D01*
X15800984Y-8523884D01*
X15800984Y-10555884D02*
X15800984Y-10449916D01*
X15695016Y-10449916D01*
X15695016Y-10555884D01*
X15800984Y-10555884D01*
X15800984Y-12587884D02*
X15800984Y-12481916D01*
X15695016Y-12481916D01*
X15695016Y-12587884D01*
X15800984Y-12587884D01*
X15800984Y-14619884D02*
X15800984Y-14513916D01*
X15695016Y-14513916D01*
X15695016Y-14619884D01*
X15800984Y-14619884D01*
X17197984Y-8777884D02*
X17197984Y-8671916D01*
X17092016Y-8671916D01*
X17092016Y-8777884D01*
X17197984Y-8777884D01*
X17197984Y-10809884D02*
X17197984Y-10703916D01*
X17092016Y-10703916D01*
X17092016Y-10809884D01*
X17197984Y-10809884D01*
X17197984Y-12841884D02*
X17197984Y-12735916D01*
X17092016Y-12735916D01*
X17092016Y-12841884D01*
X17197984Y-12841884D01*
X17197984Y-14873884D02*
X17197984Y-14767916D01*
X17092016Y-14767916D01*
X17092016Y-14873884D01*
X17197984Y-14873884D01*
X17832984Y-8523884D02*
X17832984Y-8417916D01*
X17727016Y-8417916D01*
X17727016Y-8523884D01*
X17832984Y-8523884D01*
X17832984Y-10555884D02*
X17832984Y-10449916D01*
X17727016Y-10449916D01*
X17727016Y-10555884D01*
X17832984Y-10555884D01*
X17832984Y-12587884D02*
X17832984Y-12481916D01*
X17727016Y-12481916D01*
X17727016Y-12587884D01*
X17832984Y-12587884D01*
X17832984Y-14619884D02*
X17832984Y-14513916D01*
X17727016Y-14513916D01*
X17727016Y-14619884D01*
X17832984Y-14619884D01*
D16*
X10267700Y-9621300D02*
X10372700Y-9516300D01*
X10267700Y-9411300D01*
X10162700Y-9516300D01*
X10267700Y-9621300D01*
D11*
X10162700Y-9491300D02*
X10162700Y-9541300D01*
X10162700Y-9541300D02*
G75*
G03*
X10372700Y-9541300I105000J0D01*
G01*
X10372700Y-9541300D02*
X10372700Y-9491300D01*
X10372700Y-9491300D02*
G75*
G03*
X10162700Y-9491300I-105000J0D01*
G01*
D16*
X11347700Y-9621300D02*
X11452700Y-9516300D01*
X11347700Y-9411300D01*
X11242700Y-9516300D01*
X11347700Y-9621300D01*
D11*
X11242700Y-9491300D02*
X11242700Y-9541300D01*
X11242700Y-9541300D02*
G75*
G03*
X11452700Y-9541300I105000J0D01*
G01*
X11452700Y-9541300D02*
X11452700Y-9491300D01*
X11452700Y-9491300D02*
G75*
G03*
X11242700Y-9491300I-105000J0D01*
G01*
D16*
X18157000Y-5749900D02*
X18262000Y-5644900D01*
X18157000Y-5539900D01*
X18052000Y-5644900D01*
X18157000Y-5749900D01*
D11*
X18182000Y-5539900D02*
X18132000Y-5539900D01*
X18132000Y-5539900D02*
G75*
G03*
X18132000Y-5749900I0J-105000D01*
G01*
X18132000Y-5749900D02*
X18182000Y-5749900D01*
X18182000Y-5749900D02*
G75*
G03*
X18182000Y-5539900I0J105000D01*
G01*
D16*
X18157000Y-6829900D02*
X18262000Y-6724900D01*
X18157000Y-6619900D01*
X18052000Y-6724900D01*
X18157000Y-6829900D01*
D11*
X18182000Y-6619900D02*
X18132000Y-6619900D01*
X18132000Y-6619900D02*
G75*
G03*
X18132000Y-6829900I0J-105000D01*
G01*
X18132000Y-6829900D02*
X18182000Y-6829900D01*
X18182000Y-6829900D02*
G75*
G03*
X18182000Y-6619900I0J105000D01*
G01*
X9270277Y-15901884D02*
X9270277Y-15701884D01*
X9270277Y-15701884D02*
X9317896Y-15701884D01*
X9317896Y-15701884D02*
X9346467Y-15711408D01*
X9346467Y-15711408D02*
X9365515Y-15730455D01*
X9365515Y-15730455D02*
X9375039Y-15749503D01*
X9375039Y-15749503D02*
X9384563Y-15787598D01*
X9384563Y-15787598D02*
X9384563Y-15816170D01*
X9384563Y-15816170D02*
X9375039Y-15854265D01*
X9375039Y-15854265D02*
X9365515Y-15873312D01*
X9365515Y-15873312D02*
X9346467Y-15892360D01*
X9346467Y-15892360D02*
X9317896Y-15901884D01*
X9317896Y-15901884D02*
X9270277Y-15901884D01*
X9470277Y-15901884D02*
X9470277Y-15768550D01*
X9470277Y-15806646D02*
X9479801Y-15787598D01*
X9479801Y-15787598D02*
X9489324Y-15778074D01*
X9489324Y-15778074D02*
X9508372Y-15768550D01*
X9508372Y-15768550D02*
X9527420Y-15768550D01*
X9594086Y-15901884D02*
X9594086Y-15768550D01*
X9594086Y-15701884D02*
X9584563Y-15711408D01*
X9584563Y-15711408D02*
X9594086Y-15720931D01*
X9594086Y-15720931D02*
X9603610Y-15711408D01*
X9603610Y-15711408D02*
X9594086Y-15701884D01*
X9594086Y-15701884D02*
X9594086Y-15720931D01*
X9717896Y-15901884D02*
X9698848Y-15892360D01*
X9698848Y-15892360D02*
X9689324Y-15873312D01*
X9689324Y-15873312D02*
X9689324Y-15701884D01*
X9822658Y-15901884D02*
X9803610Y-15892360D01*
X9803610Y-15892360D02*
X9794086Y-15873312D01*
X9794086Y-15873312D02*
X9794086Y-15701884D01*
X10051229Y-15901884D02*
X10051229Y-15701884D01*
X10051229Y-15701884D02*
X10117896Y-15844741D01*
X10117896Y-15844741D02*
X10184563Y-15701884D01*
X10184563Y-15701884D02*
X10184563Y-15901884D01*
X10365515Y-15901884D02*
X10365515Y-15797122D01*
X10365515Y-15797122D02*
X10355991Y-15778074D01*
X10355991Y-15778074D02*
X10336944Y-15768550D01*
X10336944Y-15768550D02*
X10298848Y-15768550D01*
X10298848Y-15768550D02*
X10279801Y-15778074D01*
X10365515Y-15892360D02*
X10346467Y-15901884D01*
X10346467Y-15901884D02*
X10298848Y-15901884D01*
X10298848Y-15901884D02*
X10279801Y-15892360D01*
X10279801Y-15892360D02*
X10270277Y-15873312D01*
X10270277Y-15873312D02*
X10270277Y-15854265D01*
X10270277Y-15854265D02*
X10279801Y-15835217D01*
X10279801Y-15835217D02*
X10298848Y-15825693D01*
X10298848Y-15825693D02*
X10346467Y-15825693D01*
X10346467Y-15825693D02*
X10365515Y-15816170D01*
X10460753Y-15768550D02*
X10460753Y-15968550D01*
X10460753Y-15778074D02*
X10479801Y-15768550D01*
X10479801Y-15768550D02*
X10517896Y-15768550D01*
X10517896Y-15768550D02*
X10536944Y-15778074D01*
X10536944Y-15778074D02*
X10546467Y-15787598D01*
X10546467Y-15787598D02*
X10555991Y-15806646D01*
X10555991Y-15806646D02*
X10555991Y-15863789D01*
X10555991Y-15863789D02*
X10546467Y-15882836D01*
X10546467Y-15882836D02*
X10536944Y-15892360D01*
X10536944Y-15892360D02*
X10517896Y-15901884D01*
X10517896Y-15901884D02*
X10479801Y-15901884D01*
X10479801Y-15901884D02*
X10460753Y-15892360D01*
X10641705Y-15882836D02*
X10651229Y-15892360D01*
X10651229Y-15892360D02*
X10641705Y-15901884D01*
X10641705Y-15901884D02*
X10632182Y-15892360D01*
X10632182Y-15892360D02*
X10641705Y-15882836D01*
X10641705Y-15882836D02*
X10641705Y-15901884D01*
X10641705Y-15778074D02*
X10651229Y-15787598D01*
X10651229Y-15787598D02*
X10641705Y-15797122D01*
X10641705Y-15797122D02*
X10632182Y-15787598D01*
X10632182Y-15787598D02*
X10641705Y-15778074D01*
X10641705Y-15778074D02*
X10641705Y-15797122D01*
D12*
X8969500Y-16210400D02*
X9009500Y-16250400D01*
X9009500Y-16210400D02*
X8969500Y-16250400D01*
D11*
X9308372Y-16121884D02*
X9327420Y-16121884D01*
X9327420Y-16121884D02*
X9346467Y-16131408D01*
X9346467Y-16131408D02*
X9355991Y-16140931D01*
X9355991Y-16140931D02*
X9365515Y-16159979D01*
X9365515Y-16159979D02*
X9375039Y-16198074D01*
X9375039Y-16198074D02*
X9375039Y-16245693D01*
X9375039Y-16245693D02*
X9365515Y-16283789D01*
X9365515Y-16283789D02*
X9355991Y-16302836D01*
X9355991Y-16302836D02*
X9346467Y-16312360D01*
X9346467Y-16312360D02*
X9327420Y-16321884D01*
X9327420Y-16321884D02*
X9308372Y-16321884D01*
X9308372Y-16321884D02*
X9289324Y-16312360D01*
X9289324Y-16312360D02*
X9279801Y-16302836D01*
X9279801Y-16302836D02*
X9270277Y-16283789D01*
X9270277Y-16283789D02*
X9260753Y-16245693D01*
X9260753Y-16245693D02*
X9260753Y-16198074D01*
X9260753Y-16198074D02*
X9270277Y-16159979D01*
X9270277Y-16159979D02*
X9279801Y-16140931D01*
X9279801Y-16140931D02*
X9289324Y-16131408D01*
X9289324Y-16131408D02*
X9308372Y-16121884D01*
X9460753Y-16302836D02*
X9470277Y-16312360D01*
X9470277Y-16312360D02*
X9460753Y-16321884D01*
X9460753Y-16321884D02*
X9451229Y-16312360D01*
X9451229Y-16312360D02*
X9460753Y-16302836D01*
X9460753Y-16302836D02*
X9460753Y-16321884D01*
X9641705Y-16188550D02*
X9641705Y-16321884D01*
X9594086Y-16112360D02*
X9546467Y-16255217D01*
X9546467Y-16255217D02*
X9670277Y-16255217D01*
X9784563Y-16121884D02*
X9803610Y-16121884D01*
X9803610Y-16121884D02*
X9822658Y-16131408D01*
X9822658Y-16131408D02*
X9832182Y-16140931D01*
X9832182Y-16140931D02*
X9841705Y-16159979D01*
X9841705Y-16159979D02*
X9851229Y-16198074D01*
X9851229Y-16198074D02*
X9851229Y-16245693D01*
X9851229Y-16245693D02*
X9841705Y-16283789D01*
X9841705Y-16283789D02*
X9832182Y-16302836D01*
X9832182Y-16302836D02*
X9822658Y-16312360D01*
X9822658Y-16312360D02*
X9803610Y-16321884D01*
X9803610Y-16321884D02*
X9784563Y-16321884D01*
X9784563Y-16321884D02*
X9765515Y-16312360D01*
X9765515Y-16312360D02*
X9755991Y-16302836D01*
X9755991Y-16302836D02*
X9746467Y-16283789D01*
X9746467Y-16283789D02*
X9736944Y-16245693D01*
X9736944Y-16245693D02*
X9736944Y-16198074D01*
X9736944Y-16198074D02*
X9746467Y-16159979D01*
X9746467Y-16159979D02*
X9755991Y-16140931D01*
X9755991Y-16140931D02*
X9765515Y-16131408D01*
X9765515Y-16131408D02*
X9784563Y-16121884D01*
X9975039Y-16121884D02*
X9994086Y-16121884D01*
X9994086Y-16121884D02*
X10013134Y-16131408D01*
X10013134Y-16131408D02*
X10022658Y-16140931D01*
X10022658Y-16140931D02*
X10032182Y-16159979D01*
X10032182Y-16159979D02*
X10041705Y-16198074D01*
X10041705Y-16198074D02*
X10041705Y-16245693D01*
X10041705Y-16245693D02*
X10032182Y-16283789D01*
X10032182Y-16283789D02*
X10022658Y-16302836D01*
X10022658Y-16302836D02*
X10013134Y-16312360D01*
X10013134Y-16312360D02*
X9994086Y-16321884D01*
X9994086Y-16321884D02*
X9975039Y-16321884D01*
X9975039Y-16321884D02*
X9955991Y-16312360D01*
X9955991Y-16312360D02*
X9946467Y-16302836D01*
X9946467Y-16302836D02*
X9936944Y-16283789D01*
X9936944Y-16283789D02*
X9927420Y-16245693D01*
X9927420Y-16245693D02*
X9927420Y-16198074D01*
X9927420Y-16198074D02*
X9936944Y-16159979D01*
X9936944Y-16159979D02*
X9946467Y-16140931D01*
X9946467Y-16140931D02*
X9955991Y-16131408D01*
X9955991Y-16131408D02*
X9975039Y-16121884D01*
X10127420Y-16321884D02*
X10127420Y-16188550D01*
X10127420Y-16207598D02*
X10136944Y-16198074D01*
X10136944Y-16198074D02*
X10155991Y-16188550D01*
X10155991Y-16188550D02*
X10184563Y-16188550D01*
X10184563Y-16188550D02*
X10203610Y-16198074D01*
X10203610Y-16198074D02*
X10213134Y-16217122D01*
X10213134Y-16217122D02*
X10213134Y-16321884D01*
X10213134Y-16217122D02*
X10222658Y-16198074D01*
X10222658Y-16198074D02*
X10241705Y-16188550D01*
X10241705Y-16188550D02*
X10270277Y-16188550D01*
X10270277Y-16188550D02*
X10289325Y-16198074D01*
X10289325Y-16198074D02*
X10298848Y-16217122D01*
X10298848Y-16217122D02*
X10298848Y-16321884D01*
X10394086Y-16321884D02*
X10394086Y-16188550D01*
X10394086Y-16207598D02*
X10403610Y-16198074D01*
X10403610Y-16198074D02*
X10422658Y-16188550D01*
X10422658Y-16188550D02*
X10451229Y-16188550D01*
X10451229Y-16188550D02*
X10470277Y-16198074D01*
X10470277Y-16198074D02*
X10479801Y-16217122D01*
X10479801Y-16217122D02*
X10479801Y-16321884D01*
X10479801Y-16217122D02*
X10489325Y-16198074D01*
X10489325Y-16198074D02*
X10508372Y-16188550D01*
X10508372Y-16188550D02*
X10536944Y-16188550D01*
X10536944Y-16188550D02*
X10555991Y-16198074D01*
X10555991Y-16198074D02*
X10565515Y-16217122D01*
X10565515Y-16217122D02*
X10565515Y-16321884D01*
X10955991Y-16112360D02*
X10784563Y-16369503D01*
X11213134Y-16121884D02*
X11232182Y-16121884D01*
X11232182Y-16121884D02*
X11251229Y-16131408D01*
X11251229Y-16131408D02*
X11260753Y-16140931D01*
X11260753Y-16140931D02*
X11270277Y-16159979D01*
X11270277Y-16159979D02*
X11279801Y-16198074D01*
X11279801Y-16198074D02*
X11279801Y-16245693D01*
X11279801Y-16245693D02*
X11270277Y-16283789D01*
X11270277Y-16283789D02*
X11260753Y-16302836D01*
X11260753Y-16302836D02*
X11251229Y-16312360D01*
X11251229Y-16312360D02*
X11232182Y-16321884D01*
X11232182Y-16321884D02*
X11213134Y-16321884D01*
X11213134Y-16321884D02*
X11194086Y-16312360D01*
X11194086Y-16312360D02*
X11184563Y-16302836D01*
X11184563Y-16302836D02*
X11175039Y-16283789D01*
X11175039Y-16283789D02*
X11165515Y-16245693D01*
X11165515Y-16245693D02*
X11165515Y-16198074D01*
X11165515Y-16198074D02*
X11175039Y-16159979D01*
X11175039Y-16159979D02*
X11184563Y-16140931D01*
X11184563Y-16140931D02*
X11194086Y-16131408D01*
X11194086Y-16131408D02*
X11213134Y-16121884D01*
X11365515Y-16302836D02*
X11375039Y-16312360D01*
X11375039Y-16312360D02*
X11365515Y-16321884D01*
X11365515Y-16321884D02*
X11355991Y-16312360D01*
X11355991Y-16312360D02*
X11365515Y-16302836D01*
X11365515Y-16302836D02*
X11365515Y-16321884D01*
X11498848Y-16121884D02*
X11517896Y-16121884D01*
X11517896Y-16121884D02*
X11536944Y-16131408D01*
X11536944Y-16131408D02*
X11546467Y-16140931D01*
X11546467Y-16140931D02*
X11555991Y-16159979D01*
X11555991Y-16159979D02*
X11565515Y-16198074D01*
X11565515Y-16198074D02*
X11565515Y-16245693D01*
X11565515Y-16245693D02*
X11555991Y-16283789D01*
X11555991Y-16283789D02*
X11546467Y-16302836D01*
X11546467Y-16302836D02*
X11536944Y-16312360D01*
X11536944Y-16312360D02*
X11517896Y-16321884D01*
X11517896Y-16321884D02*
X11498848Y-16321884D01*
X11498848Y-16321884D02*
X11479801Y-16312360D01*
X11479801Y-16312360D02*
X11470277Y-16302836D01*
X11470277Y-16302836D02*
X11460753Y-16283789D01*
X11460753Y-16283789D02*
X11451229Y-16245693D01*
X11451229Y-16245693D02*
X11451229Y-16198074D01*
X11451229Y-16198074D02*
X11460753Y-16159979D01*
X11460753Y-16159979D02*
X11470277Y-16140931D01*
X11470277Y-16140931D02*
X11479801Y-16131408D01*
X11479801Y-16131408D02*
X11498848Y-16121884D01*
X11755991Y-16321884D02*
X11641706Y-16321884D01*
X11698848Y-16321884D02*
X11698848Y-16121884D01*
X11698848Y-16121884D02*
X11679801Y-16150455D01*
X11679801Y-16150455D02*
X11660753Y-16169503D01*
X11660753Y-16169503D02*
X11641706Y-16179027D01*
X11936944Y-16121884D02*
X11841706Y-16121884D01*
X11841706Y-16121884D02*
X11832182Y-16217122D01*
X11832182Y-16217122D02*
X11841706Y-16207598D01*
X11841706Y-16207598D02*
X11860753Y-16198074D01*
X11860753Y-16198074D02*
X11908372Y-16198074D01*
X11908372Y-16198074D02*
X11927420Y-16207598D01*
X11927420Y-16207598D02*
X11936944Y-16217122D01*
X11936944Y-16217122D02*
X11946467Y-16236170D01*
X11946467Y-16236170D02*
X11946467Y-16283789D01*
X11946467Y-16283789D02*
X11936944Y-16302836D01*
X11936944Y-16302836D02*
X11927420Y-16312360D01*
X11927420Y-16312360D02*
X11908372Y-16321884D01*
X11908372Y-16321884D02*
X11860753Y-16321884D01*
X11860753Y-16321884D02*
X11841706Y-16312360D01*
X11841706Y-16312360D02*
X11832182Y-16302836D01*
X12013134Y-16121884D02*
X12146467Y-16121884D01*
X12146467Y-16121884D02*
X12060753Y-16321884D01*
X12213134Y-16121884D02*
X12213134Y-16159979D01*
X12289325Y-16121884D02*
X12289325Y-16159979D01*
X12584563Y-16398074D02*
X12575039Y-16388550D01*
X12575039Y-16388550D02*
X12555991Y-16359979D01*
X12555991Y-16359979D02*
X12546468Y-16340931D01*
X12546468Y-16340931D02*
X12536944Y-16312360D01*
X12536944Y-16312360D02*
X12527420Y-16264741D01*
X12527420Y-16264741D02*
X12527420Y-16226646D01*
X12527420Y-16226646D02*
X12536944Y-16179027D01*
X12536944Y-16179027D02*
X12546468Y-16150455D01*
X12546468Y-16150455D02*
X12555991Y-16131408D01*
X12555991Y-16131408D02*
X12575039Y-16102836D01*
X12575039Y-16102836D02*
X12584563Y-16093312D01*
X12765515Y-16321884D02*
X12651229Y-16321884D01*
X12708372Y-16321884D02*
X12708372Y-16121884D01*
X12708372Y-16121884D02*
X12689325Y-16150455D01*
X12689325Y-16150455D02*
X12670277Y-16169503D01*
X12670277Y-16169503D02*
X12651229Y-16179027D01*
X12946468Y-16121884D02*
X12851229Y-16121884D01*
X12851229Y-16121884D02*
X12841706Y-16217122D01*
X12841706Y-16217122D02*
X12851229Y-16207598D01*
X12851229Y-16207598D02*
X12870277Y-16198074D01*
X12870277Y-16198074D02*
X12917896Y-16198074D01*
X12917896Y-16198074D02*
X12936944Y-16207598D01*
X12936944Y-16207598D02*
X12946468Y-16217122D01*
X12946468Y-16217122D02*
X12955991Y-16236170D01*
X12955991Y-16236170D02*
X12955991Y-16283789D01*
X12955991Y-16283789D02*
X12946468Y-16302836D01*
X12946468Y-16302836D02*
X12936944Y-16312360D01*
X12936944Y-16312360D02*
X12917896Y-16321884D01*
X12917896Y-16321884D02*
X12870277Y-16321884D01*
X12870277Y-16321884D02*
X12851229Y-16312360D01*
X12851229Y-16312360D02*
X12841706Y-16302836D01*
X13146468Y-16321884D02*
X13032182Y-16321884D01*
X13089325Y-16321884D02*
X13089325Y-16121884D01*
X13089325Y-16121884D02*
X13070277Y-16150455D01*
X13070277Y-16150455D02*
X13051229Y-16169503D01*
X13051229Y-16169503D02*
X13032182Y-16179027D01*
X13384563Y-16321884D02*
X13384563Y-16121884D01*
X13470277Y-16321884D02*
X13470277Y-16217122D01*
X13470277Y-16217122D02*
X13460753Y-16198074D01*
X13460753Y-16198074D02*
X13441706Y-16188550D01*
X13441706Y-16188550D02*
X13413134Y-16188550D01*
X13413134Y-16188550D02*
X13394087Y-16198074D01*
X13394087Y-16198074D02*
X13384563Y-16207598D01*
X13594087Y-16321884D02*
X13575039Y-16312360D01*
X13575039Y-16312360D02*
X13565515Y-16302836D01*
X13565515Y-16302836D02*
X13555991Y-16283789D01*
X13555991Y-16283789D02*
X13555991Y-16226646D01*
X13555991Y-16226646D02*
X13565515Y-16207598D01*
X13565515Y-16207598D02*
X13575039Y-16198074D01*
X13575039Y-16198074D02*
X13594087Y-16188550D01*
X13594087Y-16188550D02*
X13622658Y-16188550D01*
X13622658Y-16188550D02*
X13641706Y-16198074D01*
X13641706Y-16198074D02*
X13651230Y-16207598D01*
X13651230Y-16207598D02*
X13660753Y-16226646D01*
X13660753Y-16226646D02*
X13660753Y-16283789D01*
X13660753Y-16283789D02*
X13651230Y-16302836D01*
X13651230Y-16302836D02*
X13641706Y-16312360D01*
X13641706Y-16312360D02*
X13622658Y-16321884D01*
X13622658Y-16321884D02*
X13594087Y-16321884D01*
X13775039Y-16321884D02*
X13755991Y-16312360D01*
X13755991Y-16312360D02*
X13746468Y-16293312D01*
X13746468Y-16293312D02*
X13746468Y-16121884D01*
X13927420Y-16312360D02*
X13908372Y-16321884D01*
X13908372Y-16321884D02*
X13870277Y-16321884D01*
X13870277Y-16321884D02*
X13851230Y-16312360D01*
X13851230Y-16312360D02*
X13841706Y-16293312D01*
X13841706Y-16293312D02*
X13841706Y-16217122D01*
X13841706Y-16217122D02*
X13851230Y-16198074D01*
X13851230Y-16198074D02*
X13870277Y-16188550D01*
X13870277Y-16188550D02*
X13908372Y-16188550D01*
X13908372Y-16188550D02*
X13927420Y-16198074D01*
X13927420Y-16198074D02*
X13936944Y-16217122D01*
X13936944Y-16217122D02*
X13936944Y-16236170D01*
X13936944Y-16236170D02*
X13841706Y-16255217D01*
X14013134Y-16312360D02*
X14032182Y-16321884D01*
X14032182Y-16321884D02*
X14070277Y-16321884D01*
X14070277Y-16321884D02*
X14089325Y-16312360D01*
X14089325Y-16312360D02*
X14098849Y-16293312D01*
X14098849Y-16293312D02*
X14098849Y-16283789D01*
X14098849Y-16283789D02*
X14089325Y-16264741D01*
X14089325Y-16264741D02*
X14070277Y-16255217D01*
X14070277Y-16255217D02*
X14041706Y-16255217D01*
X14041706Y-16255217D02*
X14022658Y-16245693D01*
X14022658Y-16245693D02*
X14013134Y-16226646D01*
X14013134Y-16226646D02*
X14013134Y-16217122D01*
X14013134Y-16217122D02*
X14022658Y-16198074D01*
X14022658Y-16198074D02*
X14041706Y-16188550D01*
X14041706Y-16188550D02*
X14070277Y-16188550D01*
X14070277Y-16188550D02*
X14089325Y-16198074D01*
X14165515Y-16398074D02*
X14175039Y-16388550D01*
X14175039Y-16388550D02*
X14194087Y-16359979D01*
X14194087Y-16359979D02*
X14203611Y-16340931D01*
X14203611Y-16340931D02*
X14213134Y-16312360D01*
X14213134Y-16312360D02*
X14222658Y-16264741D01*
X14222658Y-16264741D02*
X14222658Y-16226646D01*
X14222658Y-16226646D02*
X14213134Y-16179027D01*
X14213134Y-16179027D02*
X14203611Y-16150455D01*
X14203611Y-16150455D02*
X14194087Y-16131408D01*
X14194087Y-16131408D02*
X14175039Y-16102836D01*
X14175039Y-16102836D02*
X14165515Y-16093312D01*
D13*
X9009500Y-16494400D02*
G75*
G03*
X9009500Y-16494400I-40000J0D01*
G01*
D11*
X9308372Y-16385884D02*
X9327420Y-16385884D01*
X9327420Y-16385884D02*
X9346467Y-16395408D01*
X9346467Y-16395408D02*
X9355991Y-16404931D01*
X9355991Y-16404931D02*
X9365515Y-16423979D01*
X9365515Y-16423979D02*
X9375039Y-16462074D01*
X9375039Y-16462074D02*
X9375039Y-16509693D01*
X9375039Y-16509693D02*
X9365515Y-16547789D01*
X9365515Y-16547789D02*
X9355991Y-16566836D01*
X9355991Y-16566836D02*
X9346467Y-16576360D01*
X9346467Y-16576360D02*
X9327420Y-16585884D01*
X9327420Y-16585884D02*
X9308372Y-16585884D01*
X9308372Y-16585884D02*
X9289324Y-16576360D01*
X9289324Y-16576360D02*
X9279801Y-16566836D01*
X9279801Y-16566836D02*
X9270277Y-16547789D01*
X9270277Y-16547789D02*
X9260753Y-16509693D01*
X9260753Y-16509693D02*
X9260753Y-16462074D01*
X9260753Y-16462074D02*
X9270277Y-16423979D01*
X9270277Y-16423979D02*
X9279801Y-16404931D01*
X9279801Y-16404931D02*
X9289324Y-16395408D01*
X9289324Y-16395408D02*
X9308372Y-16385884D01*
X9460753Y-16566836D02*
X9470277Y-16576360D01*
X9470277Y-16576360D02*
X9460753Y-16585884D01*
X9460753Y-16585884D02*
X9451229Y-16576360D01*
X9451229Y-16576360D02*
X9460753Y-16566836D01*
X9460753Y-16566836D02*
X9460753Y-16585884D01*
X9584563Y-16471598D02*
X9565515Y-16462074D01*
X9565515Y-16462074D02*
X9555991Y-16452550D01*
X9555991Y-16452550D02*
X9546467Y-16433503D01*
X9546467Y-16433503D02*
X9546467Y-16423979D01*
X9546467Y-16423979D02*
X9555991Y-16404931D01*
X9555991Y-16404931D02*
X9565515Y-16395408D01*
X9565515Y-16395408D02*
X9584563Y-16385884D01*
X9584563Y-16385884D02*
X9622658Y-16385884D01*
X9622658Y-16385884D02*
X9641705Y-16395408D01*
X9641705Y-16395408D02*
X9651229Y-16404931D01*
X9651229Y-16404931D02*
X9660753Y-16423979D01*
X9660753Y-16423979D02*
X9660753Y-16433503D01*
X9660753Y-16433503D02*
X9651229Y-16452550D01*
X9651229Y-16452550D02*
X9641705Y-16462074D01*
X9641705Y-16462074D02*
X9622658Y-16471598D01*
X9622658Y-16471598D02*
X9584563Y-16471598D01*
X9584563Y-16471598D02*
X9565515Y-16481122D01*
X9565515Y-16481122D02*
X9555991Y-16490646D01*
X9555991Y-16490646D02*
X9546467Y-16509693D01*
X9546467Y-16509693D02*
X9546467Y-16547789D01*
X9546467Y-16547789D02*
X9555991Y-16566836D01*
X9555991Y-16566836D02*
X9565515Y-16576360D01*
X9565515Y-16576360D02*
X9584563Y-16585884D01*
X9584563Y-16585884D02*
X9622658Y-16585884D01*
X9622658Y-16585884D02*
X9641705Y-16576360D01*
X9641705Y-16576360D02*
X9651229Y-16566836D01*
X9651229Y-16566836D02*
X9660753Y-16547789D01*
X9660753Y-16547789D02*
X9660753Y-16509693D01*
X9660753Y-16509693D02*
X9651229Y-16490646D01*
X9651229Y-16490646D02*
X9641705Y-16481122D01*
X9641705Y-16481122D02*
X9622658Y-16471598D01*
X9784563Y-16385884D02*
X9803610Y-16385884D01*
X9803610Y-16385884D02*
X9822658Y-16395408D01*
X9822658Y-16395408D02*
X9832182Y-16404931D01*
X9832182Y-16404931D02*
X9841705Y-16423979D01*
X9841705Y-16423979D02*
X9851229Y-16462074D01*
X9851229Y-16462074D02*
X9851229Y-16509693D01*
X9851229Y-16509693D02*
X9841705Y-16547789D01*
X9841705Y-16547789D02*
X9832182Y-16566836D01*
X9832182Y-16566836D02*
X9822658Y-16576360D01*
X9822658Y-16576360D02*
X9803610Y-16585884D01*
X9803610Y-16585884D02*
X9784563Y-16585884D01*
X9784563Y-16585884D02*
X9765515Y-16576360D01*
X9765515Y-16576360D02*
X9755991Y-16566836D01*
X9755991Y-16566836D02*
X9746467Y-16547789D01*
X9746467Y-16547789D02*
X9736944Y-16509693D01*
X9736944Y-16509693D02*
X9736944Y-16462074D01*
X9736944Y-16462074D02*
X9746467Y-16423979D01*
X9746467Y-16423979D02*
X9755991Y-16404931D01*
X9755991Y-16404931D02*
X9765515Y-16395408D01*
X9765515Y-16395408D02*
X9784563Y-16385884D01*
X9975039Y-16385884D02*
X9994086Y-16385884D01*
X9994086Y-16385884D02*
X10013134Y-16395408D01*
X10013134Y-16395408D02*
X10022658Y-16404931D01*
X10022658Y-16404931D02*
X10032182Y-16423979D01*
X10032182Y-16423979D02*
X10041705Y-16462074D01*
X10041705Y-16462074D02*
X10041705Y-16509693D01*
X10041705Y-16509693D02*
X10032182Y-16547789D01*
X10032182Y-16547789D02*
X10022658Y-16566836D01*
X10022658Y-16566836D02*
X10013134Y-16576360D01*
X10013134Y-16576360D02*
X9994086Y-16585884D01*
X9994086Y-16585884D02*
X9975039Y-16585884D01*
X9975039Y-16585884D02*
X9955991Y-16576360D01*
X9955991Y-16576360D02*
X9946467Y-16566836D01*
X9946467Y-16566836D02*
X9936944Y-16547789D01*
X9936944Y-16547789D02*
X9927420Y-16509693D01*
X9927420Y-16509693D02*
X9927420Y-16462074D01*
X9927420Y-16462074D02*
X9936944Y-16423979D01*
X9936944Y-16423979D02*
X9946467Y-16404931D01*
X9946467Y-16404931D02*
X9955991Y-16395408D01*
X9955991Y-16395408D02*
X9975039Y-16385884D01*
X10127420Y-16585884D02*
X10127420Y-16452550D01*
X10127420Y-16471598D02*
X10136944Y-16462074D01*
X10136944Y-16462074D02*
X10155991Y-16452550D01*
X10155991Y-16452550D02*
X10184563Y-16452550D01*
X10184563Y-16452550D02*
X10203610Y-16462074D01*
X10203610Y-16462074D02*
X10213134Y-16481122D01*
X10213134Y-16481122D02*
X10213134Y-16585884D01*
X10213134Y-16481122D02*
X10222658Y-16462074D01*
X10222658Y-16462074D02*
X10241705Y-16452550D01*
X10241705Y-16452550D02*
X10270277Y-16452550D01*
X10270277Y-16452550D02*
X10289325Y-16462074D01*
X10289325Y-16462074D02*
X10298848Y-16481122D01*
X10298848Y-16481122D02*
X10298848Y-16585884D01*
X10394086Y-16585884D02*
X10394086Y-16452550D01*
X10394086Y-16471598D02*
X10403610Y-16462074D01*
X10403610Y-16462074D02*
X10422658Y-16452550D01*
X10422658Y-16452550D02*
X10451229Y-16452550D01*
X10451229Y-16452550D02*
X10470277Y-16462074D01*
X10470277Y-16462074D02*
X10479801Y-16481122D01*
X10479801Y-16481122D02*
X10479801Y-16585884D01*
X10479801Y-16481122D02*
X10489325Y-16462074D01*
X10489325Y-16462074D02*
X10508372Y-16452550D01*
X10508372Y-16452550D02*
X10536944Y-16452550D01*
X10536944Y-16452550D02*
X10555991Y-16462074D01*
X10555991Y-16462074D02*
X10565515Y-16481122D01*
X10565515Y-16481122D02*
X10565515Y-16585884D01*
X10955991Y-16376360D02*
X10784563Y-16633503D01*
X11213134Y-16385884D02*
X11232182Y-16385884D01*
X11232182Y-16385884D02*
X11251229Y-16395408D01*
X11251229Y-16395408D02*
X11260753Y-16404931D01*
X11260753Y-16404931D02*
X11270277Y-16423979D01*
X11270277Y-16423979D02*
X11279801Y-16462074D01*
X11279801Y-16462074D02*
X11279801Y-16509693D01*
X11279801Y-16509693D02*
X11270277Y-16547789D01*
X11270277Y-16547789D02*
X11260753Y-16566836D01*
X11260753Y-16566836D02*
X11251229Y-16576360D01*
X11251229Y-16576360D02*
X11232182Y-16585884D01*
X11232182Y-16585884D02*
X11213134Y-16585884D01*
X11213134Y-16585884D02*
X11194086Y-16576360D01*
X11194086Y-16576360D02*
X11184563Y-16566836D01*
X11184563Y-16566836D02*
X11175039Y-16547789D01*
X11175039Y-16547789D02*
X11165515Y-16509693D01*
X11165515Y-16509693D02*
X11165515Y-16462074D01*
X11165515Y-16462074D02*
X11175039Y-16423979D01*
X11175039Y-16423979D02*
X11184563Y-16404931D01*
X11184563Y-16404931D02*
X11194086Y-16395408D01*
X11194086Y-16395408D02*
X11213134Y-16385884D01*
X11365515Y-16566836D02*
X11375039Y-16576360D01*
X11375039Y-16576360D02*
X11365515Y-16585884D01*
X11365515Y-16585884D02*
X11355991Y-16576360D01*
X11355991Y-16576360D02*
X11365515Y-16566836D01*
X11365515Y-16566836D02*
X11365515Y-16585884D01*
X11498848Y-16385884D02*
X11517896Y-16385884D01*
X11517896Y-16385884D02*
X11536944Y-16395408D01*
X11536944Y-16395408D02*
X11546467Y-16404931D01*
X11546467Y-16404931D02*
X11555991Y-16423979D01*
X11555991Y-16423979D02*
X11565515Y-16462074D01*
X11565515Y-16462074D02*
X11565515Y-16509693D01*
X11565515Y-16509693D02*
X11555991Y-16547789D01*
X11555991Y-16547789D02*
X11546467Y-16566836D01*
X11546467Y-16566836D02*
X11536944Y-16576360D01*
X11536944Y-16576360D02*
X11517896Y-16585884D01*
X11517896Y-16585884D02*
X11498848Y-16585884D01*
X11498848Y-16585884D02*
X11479801Y-16576360D01*
X11479801Y-16576360D02*
X11470277Y-16566836D01*
X11470277Y-16566836D02*
X11460753Y-16547789D01*
X11460753Y-16547789D02*
X11451229Y-16509693D01*
X11451229Y-16509693D02*
X11451229Y-16462074D01*
X11451229Y-16462074D02*
X11460753Y-16423979D01*
X11460753Y-16423979D02*
X11470277Y-16404931D01*
X11470277Y-16404931D02*
X11479801Y-16395408D01*
X11479801Y-16395408D02*
X11498848Y-16385884D01*
X11632182Y-16385884D02*
X11755991Y-16385884D01*
X11755991Y-16385884D02*
X11689325Y-16462074D01*
X11689325Y-16462074D02*
X11717896Y-16462074D01*
X11717896Y-16462074D02*
X11736944Y-16471598D01*
X11736944Y-16471598D02*
X11746467Y-16481122D01*
X11746467Y-16481122D02*
X11755991Y-16500170D01*
X11755991Y-16500170D02*
X11755991Y-16547789D01*
X11755991Y-16547789D02*
X11746467Y-16566836D01*
X11746467Y-16566836D02*
X11736944Y-16576360D01*
X11736944Y-16576360D02*
X11717896Y-16585884D01*
X11717896Y-16585884D02*
X11660753Y-16585884D01*
X11660753Y-16585884D02*
X11641706Y-16576360D01*
X11641706Y-16576360D02*
X11632182Y-16566836D01*
X11946467Y-16585884D02*
X11832182Y-16585884D01*
X11889325Y-16585884D02*
X11889325Y-16385884D01*
X11889325Y-16385884D02*
X11870277Y-16414455D01*
X11870277Y-16414455D02*
X11851229Y-16433503D01*
X11851229Y-16433503D02*
X11832182Y-16443027D01*
X12127420Y-16385884D02*
X12032182Y-16385884D01*
X12032182Y-16385884D02*
X12022658Y-16481122D01*
X12022658Y-16481122D02*
X12032182Y-16471598D01*
X12032182Y-16471598D02*
X12051229Y-16462074D01*
X12051229Y-16462074D02*
X12098848Y-16462074D01*
X12098848Y-16462074D02*
X12117896Y-16471598D01*
X12117896Y-16471598D02*
X12127420Y-16481122D01*
X12127420Y-16481122D02*
X12136944Y-16500170D01*
X12136944Y-16500170D02*
X12136944Y-16547789D01*
X12136944Y-16547789D02*
X12127420Y-16566836D01*
X12127420Y-16566836D02*
X12117896Y-16576360D01*
X12117896Y-16576360D02*
X12098848Y-16585884D01*
X12098848Y-16585884D02*
X12051229Y-16585884D01*
X12051229Y-16585884D02*
X12032182Y-16576360D01*
X12032182Y-16576360D02*
X12022658Y-16566836D01*
X12213134Y-16385884D02*
X12213134Y-16423979D01*
X12289325Y-16385884D02*
X12289325Y-16423979D01*
X12584563Y-16662074D02*
X12575039Y-16652550D01*
X12575039Y-16652550D02*
X12555991Y-16623979D01*
X12555991Y-16623979D02*
X12546468Y-16604931D01*
X12546468Y-16604931D02*
X12536944Y-16576360D01*
X12536944Y-16576360D02*
X12527420Y-16528741D01*
X12527420Y-16528741D02*
X12527420Y-16490646D01*
X12527420Y-16490646D02*
X12536944Y-16443027D01*
X12536944Y-16443027D02*
X12546468Y-16414455D01*
X12546468Y-16414455D02*
X12555991Y-16395408D01*
X12555991Y-16395408D02*
X12575039Y-16366836D01*
X12575039Y-16366836D02*
X12584563Y-16357312D01*
X12651229Y-16404931D02*
X12660753Y-16395408D01*
X12660753Y-16395408D02*
X12679801Y-16385884D01*
X12679801Y-16385884D02*
X12727420Y-16385884D01*
X12727420Y-16385884D02*
X12746468Y-16395408D01*
X12746468Y-16395408D02*
X12755991Y-16404931D01*
X12755991Y-16404931D02*
X12765515Y-16423979D01*
X12765515Y-16423979D02*
X12765515Y-16443027D01*
X12765515Y-16443027D02*
X12755991Y-16471598D01*
X12755991Y-16471598D02*
X12641706Y-16585884D01*
X12641706Y-16585884D02*
X12765515Y-16585884D01*
X13003610Y-16585884D02*
X13003610Y-16385884D01*
X13089325Y-16585884D02*
X13089325Y-16481122D01*
X13089325Y-16481122D02*
X13079801Y-16462074D01*
X13079801Y-16462074D02*
X13060753Y-16452550D01*
X13060753Y-16452550D02*
X13032182Y-16452550D01*
X13032182Y-16452550D02*
X13013134Y-16462074D01*
X13013134Y-16462074D02*
X13003610Y-16471598D01*
X13213134Y-16585884D02*
X13194087Y-16576360D01*
X13194087Y-16576360D02*
X13184563Y-16566836D01*
X13184563Y-16566836D02*
X13175039Y-16547789D01*
X13175039Y-16547789D02*
X13175039Y-16490646D01*
X13175039Y-16490646D02*
X13184563Y-16471598D01*
X13184563Y-16471598D02*
X13194087Y-16462074D01*
X13194087Y-16462074D02*
X13213134Y-16452550D01*
X13213134Y-16452550D02*
X13241706Y-16452550D01*
X13241706Y-16452550D02*
X13260753Y-16462074D01*
X13260753Y-16462074D02*
X13270277Y-16471598D01*
X13270277Y-16471598D02*
X13279801Y-16490646D01*
X13279801Y-16490646D02*
X13279801Y-16547789D01*
X13279801Y-16547789D02*
X13270277Y-16566836D01*
X13270277Y-16566836D02*
X13260753Y-16576360D01*
X13260753Y-16576360D02*
X13241706Y-16585884D01*
X13241706Y-16585884D02*
X13213134Y-16585884D01*
X13394087Y-16585884D02*
X13375039Y-16576360D01*
X13375039Y-16576360D02*
X13365515Y-16557312D01*
X13365515Y-16557312D02*
X13365515Y-16385884D01*
X13546468Y-16576360D02*
X13527420Y-16585884D01*
X13527420Y-16585884D02*
X13489325Y-16585884D01*
X13489325Y-16585884D02*
X13470277Y-16576360D01*
X13470277Y-16576360D02*
X13460753Y-16557312D01*
X13460753Y-16557312D02*
X13460753Y-16481122D01*
X13460753Y-16481122D02*
X13470277Y-16462074D01*
X13470277Y-16462074D02*
X13489325Y-16452550D01*
X13489325Y-16452550D02*
X13527420Y-16452550D01*
X13527420Y-16452550D02*
X13546468Y-16462074D01*
X13546468Y-16462074D02*
X13555991Y-16481122D01*
X13555991Y-16481122D02*
X13555991Y-16500170D01*
X13555991Y-16500170D02*
X13460753Y-16519217D01*
X13632182Y-16576360D02*
X13651230Y-16585884D01*
X13651230Y-16585884D02*
X13689325Y-16585884D01*
X13689325Y-16585884D02*
X13708372Y-16576360D01*
X13708372Y-16576360D02*
X13717896Y-16557312D01*
X13717896Y-16557312D02*
X13717896Y-16547789D01*
X13717896Y-16547789D02*
X13708372Y-16528741D01*
X13708372Y-16528741D02*
X13689325Y-16519217D01*
X13689325Y-16519217D02*
X13660753Y-16519217D01*
X13660753Y-16519217D02*
X13641706Y-16509693D01*
X13641706Y-16509693D02*
X13632182Y-16490646D01*
X13632182Y-16490646D02*
X13632182Y-16481122D01*
X13632182Y-16481122D02*
X13641706Y-16462074D01*
X13641706Y-16462074D02*
X13660753Y-16452550D01*
X13660753Y-16452550D02*
X13689325Y-16452550D01*
X13689325Y-16452550D02*
X13708372Y-16462074D01*
X13784563Y-16662074D02*
X13794087Y-16652550D01*
X13794087Y-16652550D02*
X13813134Y-16623979D01*
X13813134Y-16623979D02*
X13822658Y-16604931D01*
X13822658Y-16604931D02*
X13832182Y-16576360D01*
X13832182Y-16576360D02*
X13841706Y-16528741D01*
X13841706Y-16528741D02*
X13841706Y-16490646D01*
X13841706Y-16490646D02*
X13832182Y-16443027D01*
X13832182Y-16443027D02*
X13822658Y-16414455D01*
X13822658Y-16414455D02*
X13813134Y-16395408D01*
X13813134Y-16395408D02*
X13794087Y-16366836D01*
X13794087Y-16366836D02*
X13784563Y-16357312D01*
D14*
X8959500Y-16708400D02*
X8959500Y-16808400D01*
X8909500Y-16758400D02*
X9009500Y-16758400D01*
D11*
X9375039Y-16849884D02*
X9260753Y-16849884D01*
X9317896Y-16849884D02*
X9317896Y-16649884D01*
X9317896Y-16649884D02*
X9298848Y-16678455D01*
X9298848Y-16678455D02*
X9279801Y-16697503D01*
X9279801Y-16697503D02*
X9260753Y-16707027D01*
X9460753Y-16830836D02*
X9470277Y-16840360D01*
X9470277Y-16840360D02*
X9460753Y-16849884D01*
X9460753Y-16849884D02*
X9451229Y-16840360D01*
X9451229Y-16840360D02*
X9460753Y-16830836D01*
X9460753Y-16830836D02*
X9460753Y-16849884D01*
X9594086Y-16649884D02*
X9613134Y-16649884D01*
X9613134Y-16649884D02*
X9632182Y-16659408D01*
X9632182Y-16659408D02*
X9641705Y-16668931D01*
X9641705Y-16668931D02*
X9651229Y-16687979D01*
X9651229Y-16687979D02*
X9660753Y-16726074D01*
X9660753Y-16726074D02*
X9660753Y-16773693D01*
X9660753Y-16773693D02*
X9651229Y-16811789D01*
X9651229Y-16811789D02*
X9641705Y-16830836D01*
X9641705Y-16830836D02*
X9632182Y-16840360D01*
X9632182Y-16840360D02*
X9613134Y-16849884D01*
X9613134Y-16849884D02*
X9594086Y-16849884D01*
X9594086Y-16849884D02*
X9575039Y-16840360D01*
X9575039Y-16840360D02*
X9565515Y-16830836D01*
X9565515Y-16830836D02*
X9555991Y-16811789D01*
X9555991Y-16811789D02*
X9546467Y-16773693D01*
X9546467Y-16773693D02*
X9546467Y-16726074D01*
X9546467Y-16726074D02*
X9555991Y-16687979D01*
X9555991Y-16687979D02*
X9565515Y-16668931D01*
X9565515Y-16668931D02*
X9575039Y-16659408D01*
X9575039Y-16659408D02*
X9594086Y-16649884D01*
X9784563Y-16649884D02*
X9803610Y-16649884D01*
X9803610Y-16649884D02*
X9822658Y-16659408D01*
X9822658Y-16659408D02*
X9832182Y-16668931D01*
X9832182Y-16668931D02*
X9841705Y-16687979D01*
X9841705Y-16687979D02*
X9851229Y-16726074D01*
X9851229Y-16726074D02*
X9851229Y-16773693D01*
X9851229Y-16773693D02*
X9841705Y-16811789D01*
X9841705Y-16811789D02*
X9832182Y-16830836D01*
X9832182Y-16830836D02*
X9822658Y-16840360D01*
X9822658Y-16840360D02*
X9803610Y-16849884D01*
X9803610Y-16849884D02*
X9784563Y-16849884D01*
X9784563Y-16849884D02*
X9765515Y-16840360D01*
X9765515Y-16840360D02*
X9755991Y-16830836D01*
X9755991Y-16830836D02*
X9746467Y-16811789D01*
X9746467Y-16811789D02*
X9736944Y-16773693D01*
X9736944Y-16773693D02*
X9736944Y-16726074D01*
X9736944Y-16726074D02*
X9746467Y-16687979D01*
X9746467Y-16687979D02*
X9755991Y-16668931D01*
X9755991Y-16668931D02*
X9765515Y-16659408D01*
X9765515Y-16659408D02*
X9784563Y-16649884D01*
X9975039Y-16649884D02*
X9994086Y-16649884D01*
X9994086Y-16649884D02*
X10013134Y-16659408D01*
X10013134Y-16659408D02*
X10022658Y-16668931D01*
X10022658Y-16668931D02*
X10032182Y-16687979D01*
X10032182Y-16687979D02*
X10041705Y-16726074D01*
X10041705Y-16726074D02*
X10041705Y-16773693D01*
X10041705Y-16773693D02*
X10032182Y-16811789D01*
X10032182Y-16811789D02*
X10022658Y-16830836D01*
X10022658Y-16830836D02*
X10013134Y-16840360D01*
X10013134Y-16840360D02*
X9994086Y-16849884D01*
X9994086Y-16849884D02*
X9975039Y-16849884D01*
X9975039Y-16849884D02*
X9955991Y-16840360D01*
X9955991Y-16840360D02*
X9946467Y-16830836D01*
X9946467Y-16830836D02*
X9936944Y-16811789D01*
X9936944Y-16811789D02*
X9927420Y-16773693D01*
X9927420Y-16773693D02*
X9927420Y-16726074D01*
X9927420Y-16726074D02*
X9936944Y-16687979D01*
X9936944Y-16687979D02*
X9946467Y-16668931D01*
X9946467Y-16668931D02*
X9955991Y-16659408D01*
X9955991Y-16659408D02*
X9975039Y-16649884D01*
X10127420Y-16849884D02*
X10127420Y-16716550D01*
X10127420Y-16735598D02*
X10136944Y-16726074D01*
X10136944Y-16726074D02*
X10155991Y-16716550D01*
X10155991Y-16716550D02*
X10184563Y-16716550D01*
X10184563Y-16716550D02*
X10203610Y-16726074D01*
X10203610Y-16726074D02*
X10213134Y-16745122D01*
X10213134Y-16745122D02*
X10213134Y-16849884D01*
X10213134Y-16745122D02*
X10222658Y-16726074D01*
X10222658Y-16726074D02*
X10241705Y-16716550D01*
X10241705Y-16716550D02*
X10270277Y-16716550D01*
X10270277Y-16716550D02*
X10289325Y-16726074D01*
X10289325Y-16726074D02*
X10298848Y-16745122D01*
X10298848Y-16745122D02*
X10298848Y-16849884D01*
X10394086Y-16849884D02*
X10394086Y-16716550D01*
X10394086Y-16735598D02*
X10403610Y-16726074D01*
X10403610Y-16726074D02*
X10422658Y-16716550D01*
X10422658Y-16716550D02*
X10451229Y-16716550D01*
X10451229Y-16716550D02*
X10470277Y-16726074D01*
X10470277Y-16726074D02*
X10479801Y-16745122D01*
X10479801Y-16745122D02*
X10479801Y-16849884D01*
X10479801Y-16745122D02*
X10489325Y-16726074D01*
X10489325Y-16726074D02*
X10508372Y-16716550D01*
X10508372Y-16716550D02*
X10536944Y-16716550D01*
X10536944Y-16716550D02*
X10555991Y-16726074D01*
X10555991Y-16726074D02*
X10565515Y-16745122D01*
X10565515Y-16745122D02*
X10565515Y-16849884D01*
X10955991Y-16640360D02*
X10784563Y-16897503D01*
X11213134Y-16649884D02*
X11232182Y-16649884D01*
X11232182Y-16649884D02*
X11251229Y-16659408D01*
X11251229Y-16659408D02*
X11260753Y-16668931D01*
X11260753Y-16668931D02*
X11270277Y-16687979D01*
X11270277Y-16687979D02*
X11279801Y-16726074D01*
X11279801Y-16726074D02*
X11279801Y-16773693D01*
X11279801Y-16773693D02*
X11270277Y-16811789D01*
X11270277Y-16811789D02*
X11260753Y-16830836D01*
X11260753Y-16830836D02*
X11251229Y-16840360D01*
X11251229Y-16840360D02*
X11232182Y-16849884D01*
X11232182Y-16849884D02*
X11213134Y-16849884D01*
X11213134Y-16849884D02*
X11194086Y-16840360D01*
X11194086Y-16840360D02*
X11184563Y-16830836D01*
X11184563Y-16830836D02*
X11175039Y-16811789D01*
X11175039Y-16811789D02*
X11165515Y-16773693D01*
X11165515Y-16773693D02*
X11165515Y-16726074D01*
X11165515Y-16726074D02*
X11175039Y-16687979D01*
X11175039Y-16687979D02*
X11184563Y-16668931D01*
X11184563Y-16668931D02*
X11194086Y-16659408D01*
X11194086Y-16659408D02*
X11213134Y-16649884D01*
X11365515Y-16830836D02*
X11375039Y-16840360D01*
X11375039Y-16840360D02*
X11365515Y-16849884D01*
X11365515Y-16849884D02*
X11355991Y-16840360D01*
X11355991Y-16840360D02*
X11365515Y-16830836D01*
X11365515Y-16830836D02*
X11365515Y-16849884D01*
X11498848Y-16649884D02*
X11517896Y-16649884D01*
X11517896Y-16649884D02*
X11536944Y-16659408D01*
X11536944Y-16659408D02*
X11546467Y-16668931D01*
X11546467Y-16668931D02*
X11555991Y-16687979D01*
X11555991Y-16687979D02*
X11565515Y-16726074D01*
X11565515Y-16726074D02*
X11565515Y-16773693D01*
X11565515Y-16773693D02*
X11555991Y-16811789D01*
X11555991Y-16811789D02*
X11546467Y-16830836D01*
X11546467Y-16830836D02*
X11536944Y-16840360D01*
X11536944Y-16840360D02*
X11517896Y-16849884D01*
X11517896Y-16849884D02*
X11498848Y-16849884D01*
X11498848Y-16849884D02*
X11479801Y-16840360D01*
X11479801Y-16840360D02*
X11470277Y-16830836D01*
X11470277Y-16830836D02*
X11460753Y-16811789D01*
X11460753Y-16811789D02*
X11451229Y-16773693D01*
X11451229Y-16773693D02*
X11451229Y-16726074D01*
X11451229Y-16726074D02*
X11460753Y-16687979D01*
X11460753Y-16687979D02*
X11470277Y-16668931D01*
X11470277Y-16668931D02*
X11479801Y-16659408D01*
X11479801Y-16659408D02*
X11498848Y-16649884D01*
X11632182Y-16649884D02*
X11755991Y-16649884D01*
X11755991Y-16649884D02*
X11689325Y-16726074D01*
X11689325Y-16726074D02*
X11717896Y-16726074D01*
X11717896Y-16726074D02*
X11736944Y-16735598D01*
X11736944Y-16735598D02*
X11746467Y-16745122D01*
X11746467Y-16745122D02*
X11755991Y-16764170D01*
X11755991Y-16764170D02*
X11755991Y-16811789D01*
X11755991Y-16811789D02*
X11746467Y-16830836D01*
X11746467Y-16830836D02*
X11736944Y-16840360D01*
X11736944Y-16840360D02*
X11717896Y-16849884D01*
X11717896Y-16849884D02*
X11660753Y-16849884D01*
X11660753Y-16849884D02*
X11641706Y-16840360D01*
X11641706Y-16840360D02*
X11632182Y-16830836D01*
X11851229Y-16849884D02*
X11889325Y-16849884D01*
X11889325Y-16849884D02*
X11908372Y-16840360D01*
X11908372Y-16840360D02*
X11917896Y-16830836D01*
X11917896Y-16830836D02*
X11936944Y-16802265D01*
X11936944Y-16802265D02*
X11946467Y-16764170D01*
X11946467Y-16764170D02*
X11946467Y-16687979D01*
X11946467Y-16687979D02*
X11936944Y-16668931D01*
X11936944Y-16668931D02*
X11927420Y-16659408D01*
X11927420Y-16659408D02*
X11908372Y-16649884D01*
X11908372Y-16649884D02*
X11870277Y-16649884D01*
X11870277Y-16649884D02*
X11851229Y-16659408D01*
X11851229Y-16659408D02*
X11841706Y-16668931D01*
X11841706Y-16668931D02*
X11832182Y-16687979D01*
X11832182Y-16687979D02*
X11832182Y-16735598D01*
X11832182Y-16735598D02*
X11841706Y-16754646D01*
X11841706Y-16754646D02*
X11851229Y-16764170D01*
X11851229Y-16764170D02*
X11870277Y-16773693D01*
X11870277Y-16773693D02*
X11908372Y-16773693D01*
X11908372Y-16773693D02*
X11927420Y-16764170D01*
X11927420Y-16764170D02*
X11936944Y-16754646D01*
X11936944Y-16754646D02*
X11946467Y-16735598D01*
X12117896Y-16716550D02*
X12117896Y-16849884D01*
X12070277Y-16640360D02*
X12022658Y-16783217D01*
X12022658Y-16783217D02*
X12146467Y-16783217D01*
X12213134Y-16649884D02*
X12213134Y-16687979D01*
X12289325Y-16649884D02*
X12289325Y-16687979D01*
X12584563Y-16926074D02*
X12575039Y-16916551D01*
X12575039Y-16916551D02*
X12555991Y-16887979D01*
X12555991Y-16887979D02*
X12546468Y-16868932D01*
X12546468Y-16868932D02*
X12536944Y-16840360D01*
X12536944Y-16840360D02*
X12527420Y-16792741D01*
X12527420Y-16792741D02*
X12527420Y-16754646D01*
X12527420Y-16754646D02*
X12536944Y-16707027D01*
X12536944Y-16707027D02*
X12546468Y-16678455D01*
X12546468Y-16678455D02*
X12555991Y-16659408D01*
X12555991Y-16659408D02*
X12575039Y-16630836D01*
X12575039Y-16630836D02*
X12584563Y-16621312D01*
X12765515Y-16849884D02*
X12651229Y-16849884D01*
X12708372Y-16849884D02*
X12708372Y-16649884D01*
X12708372Y-16649884D02*
X12689325Y-16678455D01*
X12689325Y-16678455D02*
X12670277Y-16697503D01*
X12670277Y-16697503D02*
X12651229Y-16707027D01*
X12955991Y-16849884D02*
X12841706Y-16849884D01*
X12898848Y-16849884D02*
X12898848Y-16649884D01*
X12898848Y-16649884D02*
X12879801Y-16678455D01*
X12879801Y-16678455D02*
X12860753Y-16697503D01*
X12860753Y-16697503D02*
X12841706Y-16707027D01*
X13022658Y-16649884D02*
X13146468Y-16649884D01*
X13146468Y-16649884D02*
X13079801Y-16726074D01*
X13079801Y-16726074D02*
X13108372Y-16726074D01*
X13108372Y-16726074D02*
X13127420Y-16735598D01*
X13127420Y-16735598D02*
X13136944Y-16745122D01*
X13136944Y-16745122D02*
X13146468Y-16764170D01*
X13146468Y-16764170D02*
X13146468Y-16811789D01*
X13146468Y-16811789D02*
X13136944Y-16830836D01*
X13136944Y-16830836D02*
X13127420Y-16840360D01*
X13127420Y-16840360D02*
X13108372Y-16849884D01*
X13108372Y-16849884D02*
X13051229Y-16849884D01*
X13051229Y-16849884D02*
X13032182Y-16840360D01*
X13032182Y-16840360D02*
X13022658Y-16830836D01*
X13384563Y-16849884D02*
X13384563Y-16649884D01*
X13470277Y-16849884D02*
X13470277Y-16745122D01*
X13470277Y-16745122D02*
X13460753Y-16726074D01*
X13460753Y-16726074D02*
X13441706Y-16716550D01*
X13441706Y-16716550D02*
X13413134Y-16716550D01*
X13413134Y-16716550D02*
X13394087Y-16726074D01*
X13394087Y-16726074D02*
X13384563Y-16735598D01*
X13594087Y-16849884D02*
X13575039Y-16840360D01*
X13575039Y-16840360D02*
X13565515Y-16830836D01*
X13565515Y-16830836D02*
X13555991Y-16811789D01*
X13555991Y-16811789D02*
X13555991Y-16754646D01*
X13555991Y-16754646D02*
X13565515Y-16735598D01*
X13565515Y-16735598D02*
X13575039Y-16726074D01*
X13575039Y-16726074D02*
X13594087Y-16716550D01*
X13594087Y-16716550D02*
X13622658Y-16716550D01*
X13622658Y-16716550D02*
X13641706Y-16726074D01*
X13641706Y-16726074D02*
X13651230Y-16735598D01*
X13651230Y-16735598D02*
X13660753Y-16754646D01*
X13660753Y-16754646D02*
X13660753Y-16811789D01*
X13660753Y-16811789D02*
X13651230Y-16830836D01*
X13651230Y-16830836D02*
X13641706Y-16840360D01*
X13641706Y-16840360D02*
X13622658Y-16849884D01*
X13622658Y-16849884D02*
X13594087Y-16849884D01*
X13775039Y-16849884D02*
X13755991Y-16840360D01*
X13755991Y-16840360D02*
X13746468Y-16821312D01*
X13746468Y-16821312D02*
X13746468Y-16649884D01*
X13927420Y-16840360D02*
X13908372Y-16849884D01*
X13908372Y-16849884D02*
X13870277Y-16849884D01*
X13870277Y-16849884D02*
X13851230Y-16840360D01*
X13851230Y-16840360D02*
X13841706Y-16821312D01*
X13841706Y-16821312D02*
X13841706Y-16745122D01*
X13841706Y-16745122D02*
X13851230Y-16726074D01*
X13851230Y-16726074D02*
X13870277Y-16716550D01*
X13870277Y-16716550D02*
X13908372Y-16716550D01*
X13908372Y-16716550D02*
X13927420Y-16726074D01*
X13927420Y-16726074D02*
X13936944Y-16745122D01*
X13936944Y-16745122D02*
X13936944Y-16764170D01*
X13936944Y-16764170D02*
X13841706Y-16783217D01*
X14013134Y-16840360D02*
X14032182Y-16849884D01*
X14032182Y-16849884D02*
X14070277Y-16849884D01*
X14070277Y-16849884D02*
X14089325Y-16840360D01*
X14089325Y-16840360D02*
X14098849Y-16821312D01*
X14098849Y-16821312D02*
X14098849Y-16811789D01*
X14098849Y-16811789D02*
X14089325Y-16792741D01*
X14089325Y-16792741D02*
X14070277Y-16783217D01*
X14070277Y-16783217D02*
X14041706Y-16783217D01*
X14041706Y-16783217D02*
X14022658Y-16773693D01*
X14022658Y-16773693D02*
X14013134Y-16754646D01*
X14013134Y-16754646D02*
X14013134Y-16745122D01*
X14013134Y-16745122D02*
X14022658Y-16726074D01*
X14022658Y-16726074D02*
X14041706Y-16716550D01*
X14041706Y-16716550D02*
X14070277Y-16716550D01*
X14070277Y-16716550D02*
X14089325Y-16726074D01*
X14165515Y-16926074D02*
X14175039Y-16916551D01*
X14175039Y-16916551D02*
X14194087Y-16887979D01*
X14194087Y-16887979D02*
X14203611Y-16868932D01*
X14203611Y-16868932D02*
X14213134Y-16840360D01*
X14213134Y-16840360D02*
X14222658Y-16792741D01*
X14222658Y-16792741D02*
X14222658Y-16754646D01*
X14222658Y-16754646D02*
X14213134Y-16707027D01*
X14213134Y-16707027D02*
X14203611Y-16678455D01*
X14203611Y-16678455D02*
X14194087Y-16659408D01*
X14194087Y-16659408D02*
X14175039Y-16630836D01*
X14175039Y-16630836D02*
X14165515Y-16621312D01*
D15*
X8987554Y-17075384D02*
X8987554Y-16969416D01*
X8881586Y-16969416D01*
X8881586Y-17075384D01*
X8987554Y-17075384D01*
D11*
X9375039Y-17113884D02*
X9260753Y-17113884D01*
X9317896Y-17113884D02*
X9317896Y-16913884D01*
X9317896Y-16913884D02*
X9298848Y-16942455D01*
X9298848Y-16942455D02*
X9279801Y-16961503D01*
X9279801Y-16961503D02*
X9260753Y-16971027D01*
X9460753Y-17094836D02*
X9470277Y-17104360D01*
X9470277Y-17104360D02*
X9460753Y-17113884D01*
X9460753Y-17113884D02*
X9451229Y-17104360D01*
X9451229Y-17104360D02*
X9460753Y-17094836D01*
X9460753Y-17094836D02*
X9460753Y-17113884D01*
X9641705Y-16980551D02*
X9641705Y-17113884D01*
X9594086Y-16904360D02*
X9546467Y-17047217D01*
X9546467Y-17047217D02*
X9670277Y-17047217D01*
X9755991Y-17113884D02*
X9794086Y-17113884D01*
X9794086Y-17113884D02*
X9813134Y-17104360D01*
X9813134Y-17104360D02*
X9822658Y-17094836D01*
X9822658Y-17094836D02*
X9841705Y-17066265D01*
X9841705Y-17066265D02*
X9851229Y-17028170D01*
X9851229Y-17028170D02*
X9851229Y-16951979D01*
X9851229Y-16951979D02*
X9841705Y-16932932D01*
X9841705Y-16932932D02*
X9832182Y-16923408D01*
X9832182Y-16923408D02*
X9813134Y-16913884D01*
X9813134Y-16913884D02*
X9775039Y-16913884D01*
X9775039Y-16913884D02*
X9755991Y-16923408D01*
X9755991Y-16923408D02*
X9746467Y-16932932D01*
X9746467Y-16932932D02*
X9736944Y-16951979D01*
X9736944Y-16951979D02*
X9736944Y-16999598D01*
X9736944Y-16999598D02*
X9746467Y-17018646D01*
X9746467Y-17018646D02*
X9755991Y-17028170D01*
X9755991Y-17028170D02*
X9775039Y-17037693D01*
X9775039Y-17037693D02*
X9813134Y-17037693D01*
X9813134Y-17037693D02*
X9832182Y-17028170D01*
X9832182Y-17028170D02*
X9841705Y-17018646D01*
X9841705Y-17018646D02*
X9851229Y-16999598D01*
X9946467Y-17113884D02*
X9984563Y-17113884D01*
X9984563Y-17113884D02*
X10003610Y-17104360D01*
X10003610Y-17104360D02*
X10013134Y-17094836D01*
X10013134Y-17094836D02*
X10032182Y-17066265D01*
X10032182Y-17066265D02*
X10041705Y-17028170D01*
X10041705Y-17028170D02*
X10041705Y-16951979D01*
X10041705Y-16951979D02*
X10032182Y-16932932D01*
X10032182Y-16932932D02*
X10022658Y-16923408D01*
X10022658Y-16923408D02*
X10003610Y-16913884D01*
X10003610Y-16913884D02*
X9965515Y-16913884D01*
X9965515Y-16913884D02*
X9946467Y-16923408D01*
X9946467Y-16923408D02*
X9936944Y-16932932D01*
X9936944Y-16932932D02*
X9927420Y-16951979D01*
X9927420Y-16951979D02*
X9927420Y-16999598D01*
X9927420Y-16999598D02*
X9936944Y-17018646D01*
X9936944Y-17018646D02*
X9946467Y-17028170D01*
X9946467Y-17028170D02*
X9965515Y-17037693D01*
X9965515Y-17037693D02*
X10003610Y-17037693D01*
X10003610Y-17037693D02*
X10022658Y-17028170D01*
X10022658Y-17028170D02*
X10032182Y-17018646D01*
X10032182Y-17018646D02*
X10041705Y-16999598D01*
X10127420Y-17113884D02*
X10127420Y-16980551D01*
X10127420Y-16999598D02*
X10136944Y-16990074D01*
X10136944Y-16990074D02*
X10155991Y-16980551D01*
X10155991Y-16980551D02*
X10184563Y-16980551D01*
X10184563Y-16980551D02*
X10203610Y-16990074D01*
X10203610Y-16990074D02*
X10213134Y-17009122D01*
X10213134Y-17009122D02*
X10213134Y-17113884D01*
X10213134Y-17009122D02*
X10222658Y-16990074D01*
X10222658Y-16990074D02*
X10241705Y-16980551D01*
X10241705Y-16980551D02*
X10270277Y-16980551D01*
X10270277Y-16980551D02*
X10289325Y-16990074D01*
X10289325Y-16990074D02*
X10298848Y-17009122D01*
X10298848Y-17009122D02*
X10298848Y-17113884D01*
X10394086Y-17113884D02*
X10394086Y-16980551D01*
X10394086Y-16999598D02*
X10403610Y-16990074D01*
X10403610Y-16990074D02*
X10422658Y-16980551D01*
X10422658Y-16980551D02*
X10451229Y-16980551D01*
X10451229Y-16980551D02*
X10470277Y-16990074D01*
X10470277Y-16990074D02*
X10479801Y-17009122D01*
X10479801Y-17009122D02*
X10479801Y-17113884D01*
X10479801Y-17009122D02*
X10489325Y-16990074D01*
X10489325Y-16990074D02*
X10508372Y-16980551D01*
X10508372Y-16980551D02*
X10536944Y-16980551D01*
X10536944Y-16980551D02*
X10555991Y-16990074D01*
X10555991Y-16990074D02*
X10565515Y-17009122D01*
X10565515Y-17009122D02*
X10565515Y-17113884D01*
X10955991Y-16904360D02*
X10784563Y-17161503D01*
X11213134Y-16913884D02*
X11232182Y-16913884D01*
X11232182Y-16913884D02*
X11251229Y-16923408D01*
X11251229Y-16923408D02*
X11260753Y-16932932D01*
X11260753Y-16932932D02*
X11270277Y-16951979D01*
X11270277Y-16951979D02*
X11279801Y-16990074D01*
X11279801Y-16990074D02*
X11279801Y-17037693D01*
X11279801Y-17037693D02*
X11270277Y-17075789D01*
X11270277Y-17075789D02*
X11260753Y-17094836D01*
X11260753Y-17094836D02*
X11251229Y-17104360D01*
X11251229Y-17104360D02*
X11232182Y-17113884D01*
X11232182Y-17113884D02*
X11213134Y-17113884D01*
X11213134Y-17113884D02*
X11194086Y-17104360D01*
X11194086Y-17104360D02*
X11184563Y-17094836D01*
X11184563Y-17094836D02*
X11175039Y-17075789D01*
X11175039Y-17075789D02*
X11165515Y-17037693D01*
X11165515Y-17037693D02*
X11165515Y-16990074D01*
X11165515Y-16990074D02*
X11175039Y-16951979D01*
X11175039Y-16951979D02*
X11184563Y-16932932D01*
X11184563Y-16932932D02*
X11194086Y-16923408D01*
X11194086Y-16923408D02*
X11213134Y-16913884D01*
X11365515Y-17094836D02*
X11375039Y-17104360D01*
X11375039Y-17104360D02*
X11365515Y-17113884D01*
X11365515Y-17113884D02*
X11355991Y-17104360D01*
X11355991Y-17104360D02*
X11365515Y-17094836D01*
X11365515Y-17094836D02*
X11365515Y-17113884D01*
X11498848Y-16913884D02*
X11517896Y-16913884D01*
X11517896Y-16913884D02*
X11536944Y-16923408D01*
X11536944Y-16923408D02*
X11546467Y-16932932D01*
X11546467Y-16932932D02*
X11555991Y-16951979D01*
X11555991Y-16951979D02*
X11565515Y-16990074D01*
X11565515Y-16990074D02*
X11565515Y-17037693D01*
X11565515Y-17037693D02*
X11555991Y-17075789D01*
X11555991Y-17075789D02*
X11546467Y-17094836D01*
X11546467Y-17094836D02*
X11536944Y-17104360D01*
X11536944Y-17104360D02*
X11517896Y-17113884D01*
X11517896Y-17113884D02*
X11498848Y-17113884D01*
X11498848Y-17113884D02*
X11479801Y-17104360D01*
X11479801Y-17104360D02*
X11470277Y-17094836D01*
X11470277Y-17094836D02*
X11460753Y-17075789D01*
X11460753Y-17075789D02*
X11451229Y-17037693D01*
X11451229Y-17037693D02*
X11451229Y-16990074D01*
X11451229Y-16990074D02*
X11460753Y-16951979D01*
X11460753Y-16951979D02*
X11470277Y-16932932D01*
X11470277Y-16932932D02*
X11479801Y-16923408D01*
X11479801Y-16923408D02*
X11498848Y-16913884D01*
X11746467Y-16913884D02*
X11651229Y-16913884D01*
X11651229Y-16913884D02*
X11641706Y-17009122D01*
X11641706Y-17009122D02*
X11651229Y-16999598D01*
X11651229Y-16999598D02*
X11670277Y-16990074D01*
X11670277Y-16990074D02*
X11717896Y-16990074D01*
X11717896Y-16990074D02*
X11736944Y-16999598D01*
X11736944Y-16999598D02*
X11746467Y-17009122D01*
X11746467Y-17009122D02*
X11755991Y-17028170D01*
X11755991Y-17028170D02*
X11755991Y-17075789D01*
X11755991Y-17075789D02*
X11746467Y-17094836D01*
X11746467Y-17094836D02*
X11736944Y-17104360D01*
X11736944Y-17104360D02*
X11717896Y-17113884D01*
X11717896Y-17113884D02*
X11670277Y-17113884D01*
X11670277Y-17113884D02*
X11651229Y-17104360D01*
X11651229Y-17104360D02*
X11641706Y-17094836D01*
X11851229Y-17113884D02*
X11889325Y-17113884D01*
X11889325Y-17113884D02*
X11908372Y-17104360D01*
X11908372Y-17104360D02*
X11917896Y-17094836D01*
X11917896Y-17094836D02*
X11936944Y-17066265D01*
X11936944Y-17066265D02*
X11946467Y-17028170D01*
X11946467Y-17028170D02*
X11946467Y-16951979D01*
X11946467Y-16951979D02*
X11936944Y-16932932D01*
X11936944Y-16932932D02*
X11927420Y-16923408D01*
X11927420Y-16923408D02*
X11908372Y-16913884D01*
X11908372Y-16913884D02*
X11870277Y-16913884D01*
X11870277Y-16913884D02*
X11851229Y-16923408D01*
X11851229Y-16923408D02*
X11841706Y-16932932D01*
X11841706Y-16932932D02*
X11832182Y-16951979D01*
X11832182Y-16951979D02*
X11832182Y-16999598D01*
X11832182Y-16999598D02*
X11841706Y-17018646D01*
X11841706Y-17018646D02*
X11851229Y-17028170D01*
X11851229Y-17028170D02*
X11870277Y-17037693D01*
X11870277Y-17037693D02*
X11908372Y-17037693D01*
X11908372Y-17037693D02*
X11927420Y-17028170D01*
X11927420Y-17028170D02*
X11936944Y-17018646D01*
X11936944Y-17018646D02*
X11946467Y-16999598D01*
X12070277Y-16913884D02*
X12089325Y-16913884D01*
X12089325Y-16913884D02*
X12108372Y-16923408D01*
X12108372Y-16923408D02*
X12117896Y-16932932D01*
X12117896Y-16932932D02*
X12127420Y-16951979D01*
X12127420Y-16951979D02*
X12136944Y-16990074D01*
X12136944Y-16990074D02*
X12136944Y-17037693D01*
X12136944Y-17037693D02*
X12127420Y-17075789D01*
X12127420Y-17075789D02*
X12117896Y-17094836D01*
X12117896Y-17094836D02*
X12108372Y-17104360D01*
X12108372Y-17104360D02*
X12089325Y-17113884D01*
X12089325Y-17113884D02*
X12070277Y-17113884D01*
X12070277Y-17113884D02*
X12051229Y-17104360D01*
X12051229Y-17104360D02*
X12041706Y-17094836D01*
X12041706Y-17094836D02*
X12032182Y-17075789D01*
X12032182Y-17075789D02*
X12022658Y-17037693D01*
X12022658Y-17037693D02*
X12022658Y-16990074D01*
X12022658Y-16990074D02*
X12032182Y-16951979D01*
X12032182Y-16951979D02*
X12041706Y-16932932D01*
X12041706Y-16932932D02*
X12051229Y-16923408D01*
X12051229Y-16923408D02*
X12070277Y-16913884D01*
X12213134Y-16913884D02*
X12213134Y-16951979D01*
X12289325Y-16913884D02*
X12289325Y-16951979D01*
X12584563Y-17190074D02*
X12575039Y-17180551D01*
X12575039Y-17180551D02*
X12555991Y-17151979D01*
X12555991Y-17151979D02*
X12546468Y-17132932D01*
X12546468Y-17132932D02*
X12536944Y-17104360D01*
X12536944Y-17104360D02*
X12527420Y-17056741D01*
X12527420Y-17056741D02*
X12527420Y-17018646D01*
X12527420Y-17018646D02*
X12536944Y-16971027D01*
X12536944Y-16971027D02*
X12546468Y-16942455D01*
X12546468Y-16942455D02*
X12555991Y-16923408D01*
X12555991Y-16923408D02*
X12575039Y-16894836D01*
X12575039Y-16894836D02*
X12584563Y-16885312D01*
X12651229Y-16932932D02*
X12660753Y-16923408D01*
X12660753Y-16923408D02*
X12679801Y-16913884D01*
X12679801Y-16913884D02*
X12727420Y-16913884D01*
X12727420Y-16913884D02*
X12746468Y-16923408D01*
X12746468Y-16923408D02*
X12755991Y-16932932D01*
X12755991Y-16932932D02*
X12765515Y-16951979D01*
X12765515Y-16951979D02*
X12765515Y-16971027D01*
X12765515Y-16971027D02*
X12755991Y-16999598D01*
X12755991Y-16999598D02*
X12641706Y-17113884D01*
X12641706Y-17113884D02*
X12765515Y-17113884D01*
X12936944Y-16980551D02*
X12936944Y-17113884D01*
X12889325Y-16904360D02*
X12841706Y-17047217D01*
X12841706Y-17047217D02*
X12965515Y-17047217D01*
X13194087Y-17113884D02*
X13194087Y-16913884D01*
X13279801Y-17113884D02*
X13279801Y-17009122D01*
X13279801Y-17009122D02*
X13270277Y-16990074D01*
X13270277Y-16990074D02*
X13251230Y-16980551D01*
X13251230Y-16980551D02*
X13222658Y-16980551D01*
X13222658Y-16980551D02*
X13203610Y-16990074D01*
X13203610Y-16990074D02*
X13194087Y-16999598D01*
X13403610Y-17113884D02*
X13384563Y-17104360D01*
X13384563Y-17104360D02*
X13375039Y-17094836D01*
X13375039Y-17094836D02*
X13365515Y-17075789D01*
X13365515Y-17075789D02*
X13365515Y-17018646D01*
X13365515Y-17018646D02*
X13375039Y-16999598D01*
X13375039Y-16999598D02*
X13384563Y-16990074D01*
X13384563Y-16990074D02*
X13403610Y-16980551D01*
X13403610Y-16980551D02*
X13432182Y-16980551D01*
X13432182Y-16980551D02*
X13451230Y-16990074D01*
X13451230Y-16990074D02*
X13460753Y-16999598D01*
X13460753Y-16999598D02*
X13470277Y-17018646D01*
X13470277Y-17018646D02*
X13470277Y-17075789D01*
X13470277Y-17075789D02*
X13460753Y-17094836D01*
X13460753Y-17094836D02*
X13451230Y-17104360D01*
X13451230Y-17104360D02*
X13432182Y-17113884D01*
X13432182Y-17113884D02*
X13403610Y-17113884D01*
X13584563Y-17113884D02*
X13565515Y-17104360D01*
X13565515Y-17104360D02*
X13555991Y-17085312D01*
X13555991Y-17085312D02*
X13555991Y-16913884D01*
X13736944Y-17104360D02*
X13717896Y-17113884D01*
X13717896Y-17113884D02*
X13679801Y-17113884D01*
X13679801Y-17113884D02*
X13660753Y-17104360D01*
X13660753Y-17104360D02*
X13651230Y-17085312D01*
X13651230Y-17085312D02*
X13651230Y-17009122D01*
X13651230Y-17009122D02*
X13660753Y-16990074D01*
X13660753Y-16990074D02*
X13679801Y-16980551D01*
X13679801Y-16980551D02*
X13717896Y-16980551D01*
X13717896Y-16980551D02*
X13736944Y-16990074D01*
X13736944Y-16990074D02*
X13746468Y-17009122D01*
X13746468Y-17009122D02*
X13746468Y-17028170D01*
X13746468Y-17028170D02*
X13651230Y-17047217D01*
X13822658Y-17104360D02*
X13841706Y-17113884D01*
X13841706Y-17113884D02*
X13879801Y-17113884D01*
X13879801Y-17113884D02*
X13898849Y-17104360D01*
X13898849Y-17104360D02*
X13908372Y-17085312D01*
X13908372Y-17085312D02*
X13908372Y-17075789D01*
X13908372Y-17075789D02*
X13898849Y-17056741D01*
X13898849Y-17056741D02*
X13879801Y-17047217D01*
X13879801Y-17047217D02*
X13851230Y-17047217D01*
X13851230Y-17047217D02*
X13832182Y-17037693D01*
X13832182Y-17037693D02*
X13822658Y-17018646D01*
X13822658Y-17018646D02*
X13822658Y-17009122D01*
X13822658Y-17009122D02*
X13832182Y-16990074D01*
X13832182Y-16990074D02*
X13851230Y-16980551D01*
X13851230Y-16980551D02*
X13879801Y-16980551D01*
X13879801Y-16980551D02*
X13898849Y-16990074D01*
X13975039Y-17190074D02*
X13984563Y-17180551D01*
X13984563Y-17180551D02*
X14003611Y-17151979D01*
X14003611Y-17151979D02*
X14013134Y-17132932D01*
X14013134Y-17132932D02*
X14022658Y-17104360D01*
X14022658Y-17104360D02*
X14032182Y-17056741D01*
X14032182Y-17056741D02*
X14032182Y-17018646D01*
X14032182Y-17018646D02*
X14022658Y-16971027D01*
X14022658Y-16971027D02*
X14013134Y-16942455D01*
X14013134Y-16942455D02*
X14003611Y-16923408D01*
X14003611Y-16923408D02*
X13984563Y-16894836D01*
X13984563Y-16894836D02*
X13975039Y-16885312D01*
X8909500Y-17392260D02*
X9009500Y-17292260D01*
X8909500Y-17192260D01*
X8809500Y-17292260D01*
X8909500Y-17392260D01*
X9260753Y-17202792D02*
X9270277Y-17193268D01*
X9270277Y-17193268D02*
X9289324Y-17183744D01*
X9289324Y-17183744D02*
X9336944Y-17183744D01*
X9336944Y-17183744D02*
X9355991Y-17193268D01*
X9355991Y-17193268D02*
X9365515Y-17202792D01*
X9365515Y-17202792D02*
X9375039Y-17221839D01*
X9375039Y-17221839D02*
X9375039Y-17240887D01*
X9375039Y-17240887D02*
X9365515Y-17269458D01*
X9365515Y-17269458D02*
X9251229Y-17383744D01*
X9251229Y-17383744D02*
X9375039Y-17383744D01*
X9460753Y-17364696D02*
X9470277Y-17374220D01*
X9470277Y-17374220D02*
X9460753Y-17383744D01*
X9460753Y-17383744D02*
X9451229Y-17374220D01*
X9451229Y-17374220D02*
X9460753Y-17364696D01*
X9460753Y-17364696D02*
X9460753Y-17383744D01*
X9660753Y-17383744D02*
X9546467Y-17383744D01*
X9603610Y-17383744D02*
X9603610Y-17183744D01*
X9603610Y-17183744D02*
X9584563Y-17212315D01*
X9584563Y-17212315D02*
X9565515Y-17231363D01*
X9565515Y-17231363D02*
X9546467Y-17240887D01*
X9784563Y-17183744D02*
X9803610Y-17183744D01*
X9803610Y-17183744D02*
X9822658Y-17193268D01*
X9822658Y-17193268D02*
X9832182Y-17202792D01*
X9832182Y-17202792D02*
X9841705Y-17221839D01*
X9841705Y-17221839D02*
X9851229Y-17259934D01*
X9851229Y-17259934D02*
X9851229Y-17307553D01*
X9851229Y-17307553D02*
X9841705Y-17345649D01*
X9841705Y-17345649D02*
X9832182Y-17364696D01*
X9832182Y-17364696D02*
X9822658Y-17374220D01*
X9822658Y-17374220D02*
X9803610Y-17383744D01*
X9803610Y-17383744D02*
X9784563Y-17383744D01*
X9784563Y-17383744D02*
X9765515Y-17374220D01*
X9765515Y-17374220D02*
X9755991Y-17364696D01*
X9755991Y-17364696D02*
X9746467Y-17345649D01*
X9746467Y-17345649D02*
X9736944Y-17307553D01*
X9736944Y-17307553D02*
X9736944Y-17259934D01*
X9736944Y-17259934D02*
X9746467Y-17221839D01*
X9746467Y-17221839D02*
X9755991Y-17202792D01*
X9755991Y-17202792D02*
X9765515Y-17193268D01*
X9765515Y-17193268D02*
X9784563Y-17183744D01*
X9975039Y-17183744D02*
X9994086Y-17183744D01*
X9994086Y-17183744D02*
X10013134Y-17193268D01*
X10013134Y-17193268D02*
X10022658Y-17202792D01*
X10022658Y-17202792D02*
X10032182Y-17221839D01*
X10032182Y-17221839D02*
X10041705Y-17259934D01*
X10041705Y-17259934D02*
X10041705Y-17307553D01*
X10041705Y-17307553D02*
X10032182Y-17345649D01*
X10032182Y-17345649D02*
X10022658Y-17364696D01*
X10022658Y-17364696D02*
X10013134Y-17374220D01*
X10013134Y-17374220D02*
X9994086Y-17383744D01*
X9994086Y-17383744D02*
X9975039Y-17383744D01*
X9975039Y-17383744D02*
X9955991Y-17374220D01*
X9955991Y-17374220D02*
X9946467Y-17364696D01*
X9946467Y-17364696D02*
X9936944Y-17345649D01*
X9936944Y-17345649D02*
X9927420Y-17307553D01*
X9927420Y-17307553D02*
X9927420Y-17259934D01*
X9927420Y-17259934D02*
X9936944Y-17221839D01*
X9936944Y-17221839D02*
X9946467Y-17202792D01*
X9946467Y-17202792D02*
X9955991Y-17193268D01*
X9955991Y-17193268D02*
X9975039Y-17183744D01*
X10127420Y-17383744D02*
X10127420Y-17250411D01*
X10127420Y-17269458D02*
X10136944Y-17259934D01*
X10136944Y-17259934D02*
X10155991Y-17250411D01*
X10155991Y-17250411D02*
X10184563Y-17250411D01*
X10184563Y-17250411D02*
X10203610Y-17259934D01*
X10203610Y-17259934D02*
X10213134Y-17278982D01*
X10213134Y-17278982D02*
X10213134Y-17383744D01*
X10213134Y-17278982D02*
X10222658Y-17259934D01*
X10222658Y-17259934D02*
X10241705Y-17250411D01*
X10241705Y-17250411D02*
X10270277Y-17250411D01*
X10270277Y-17250411D02*
X10289325Y-17259934D01*
X10289325Y-17259934D02*
X10298848Y-17278982D01*
X10298848Y-17278982D02*
X10298848Y-17383744D01*
X10394086Y-17383744D02*
X10394086Y-17250411D01*
X10394086Y-17269458D02*
X10403610Y-17259934D01*
X10403610Y-17259934D02*
X10422658Y-17250411D01*
X10422658Y-17250411D02*
X10451229Y-17250411D01*
X10451229Y-17250411D02*
X10470277Y-17259934D01*
X10470277Y-17259934D02*
X10479801Y-17278982D01*
X10479801Y-17278982D02*
X10479801Y-17383744D01*
X10479801Y-17278982D02*
X10489325Y-17259934D01*
X10489325Y-17259934D02*
X10508372Y-17250411D01*
X10508372Y-17250411D02*
X10536944Y-17250411D01*
X10536944Y-17250411D02*
X10555991Y-17259934D01*
X10555991Y-17259934D02*
X10565515Y-17278982D01*
X10565515Y-17278982D02*
X10565515Y-17383744D01*
X10955991Y-17174220D02*
X10784563Y-17431363D01*
X11213134Y-17183744D02*
X11232182Y-17183744D01*
X11232182Y-17183744D02*
X11251229Y-17193268D01*
X11251229Y-17193268D02*
X11260753Y-17202792D01*
X11260753Y-17202792D02*
X11270277Y-17221839D01*
X11270277Y-17221839D02*
X11279801Y-17259934D01*
X11279801Y-17259934D02*
X11279801Y-17307553D01*
X11279801Y-17307553D02*
X11270277Y-17345649D01*
X11270277Y-17345649D02*
X11260753Y-17364696D01*
X11260753Y-17364696D02*
X11251229Y-17374220D01*
X11251229Y-17374220D02*
X11232182Y-17383744D01*
X11232182Y-17383744D02*
X11213134Y-17383744D01*
X11213134Y-17383744D02*
X11194086Y-17374220D01*
X11194086Y-17374220D02*
X11184563Y-17364696D01*
X11184563Y-17364696D02*
X11175039Y-17345649D01*
X11175039Y-17345649D02*
X11165515Y-17307553D01*
X11165515Y-17307553D02*
X11165515Y-17259934D01*
X11165515Y-17259934D02*
X11175039Y-17221839D01*
X11175039Y-17221839D02*
X11184563Y-17202792D01*
X11184563Y-17202792D02*
X11194086Y-17193268D01*
X11194086Y-17193268D02*
X11213134Y-17183744D01*
X11365515Y-17364696D02*
X11375039Y-17374220D01*
X11375039Y-17374220D02*
X11365515Y-17383744D01*
X11365515Y-17383744D02*
X11355991Y-17374220D01*
X11355991Y-17374220D02*
X11365515Y-17364696D01*
X11365515Y-17364696D02*
X11365515Y-17383744D01*
X11498848Y-17183744D02*
X11517896Y-17183744D01*
X11517896Y-17183744D02*
X11536944Y-17193268D01*
X11536944Y-17193268D02*
X11546467Y-17202792D01*
X11546467Y-17202792D02*
X11555991Y-17221839D01*
X11555991Y-17221839D02*
X11565515Y-17259934D01*
X11565515Y-17259934D02*
X11565515Y-17307553D01*
X11565515Y-17307553D02*
X11555991Y-17345649D01*
X11555991Y-17345649D02*
X11546467Y-17364696D01*
X11546467Y-17364696D02*
X11536944Y-17374220D01*
X11536944Y-17374220D02*
X11517896Y-17383744D01*
X11517896Y-17383744D02*
X11498848Y-17383744D01*
X11498848Y-17383744D02*
X11479801Y-17374220D01*
X11479801Y-17374220D02*
X11470277Y-17364696D01*
X11470277Y-17364696D02*
X11460753Y-17345649D01*
X11460753Y-17345649D02*
X11451229Y-17307553D01*
X11451229Y-17307553D02*
X11451229Y-17259934D01*
X11451229Y-17259934D02*
X11460753Y-17221839D01*
X11460753Y-17221839D02*
X11470277Y-17202792D01*
X11470277Y-17202792D02*
X11479801Y-17193268D01*
X11479801Y-17193268D02*
X11498848Y-17183744D01*
X11679801Y-17269458D02*
X11660753Y-17259934D01*
X11660753Y-17259934D02*
X11651229Y-17250411D01*
X11651229Y-17250411D02*
X11641706Y-17231363D01*
X11641706Y-17231363D02*
X11641706Y-17221839D01*
X11641706Y-17221839D02*
X11651229Y-17202792D01*
X11651229Y-17202792D02*
X11660753Y-17193268D01*
X11660753Y-17193268D02*
X11679801Y-17183744D01*
X11679801Y-17183744D02*
X11717896Y-17183744D01*
X11717896Y-17183744D02*
X11736944Y-17193268D01*
X11736944Y-17193268D02*
X11746467Y-17202792D01*
X11746467Y-17202792D02*
X11755991Y-17221839D01*
X11755991Y-17221839D02*
X11755991Y-17231363D01*
X11755991Y-17231363D02*
X11746467Y-17250411D01*
X11746467Y-17250411D02*
X11736944Y-17259934D01*
X11736944Y-17259934D02*
X11717896Y-17269458D01*
X11717896Y-17269458D02*
X11679801Y-17269458D01*
X11679801Y-17269458D02*
X11660753Y-17278982D01*
X11660753Y-17278982D02*
X11651229Y-17288506D01*
X11651229Y-17288506D02*
X11641706Y-17307553D01*
X11641706Y-17307553D02*
X11641706Y-17345649D01*
X11641706Y-17345649D02*
X11651229Y-17364696D01*
X11651229Y-17364696D02*
X11660753Y-17374220D01*
X11660753Y-17374220D02*
X11679801Y-17383744D01*
X11679801Y-17383744D02*
X11717896Y-17383744D01*
X11717896Y-17383744D02*
X11736944Y-17374220D01*
X11736944Y-17374220D02*
X11746467Y-17364696D01*
X11746467Y-17364696D02*
X11755991Y-17345649D01*
X11755991Y-17345649D02*
X11755991Y-17307553D01*
X11755991Y-17307553D02*
X11746467Y-17288506D01*
X11746467Y-17288506D02*
X11736944Y-17278982D01*
X11736944Y-17278982D02*
X11717896Y-17269458D01*
X11832182Y-17202792D02*
X11841706Y-17193268D01*
X11841706Y-17193268D02*
X11860753Y-17183744D01*
X11860753Y-17183744D02*
X11908372Y-17183744D01*
X11908372Y-17183744D02*
X11927420Y-17193268D01*
X11927420Y-17193268D02*
X11936944Y-17202792D01*
X11936944Y-17202792D02*
X11946467Y-17221839D01*
X11946467Y-17221839D02*
X11946467Y-17240887D01*
X11946467Y-17240887D02*
X11936944Y-17269458D01*
X11936944Y-17269458D02*
X11822658Y-17383744D01*
X11822658Y-17383744D02*
X11946467Y-17383744D01*
X12013134Y-17183744D02*
X12146467Y-17183744D01*
X12146467Y-17183744D02*
X12060753Y-17383744D01*
X12213134Y-17183744D02*
X12213134Y-17221839D01*
X12289325Y-17183744D02*
X12289325Y-17221839D01*
X12584563Y-17459934D02*
X12575039Y-17450411D01*
X12575039Y-17450411D02*
X12555991Y-17421839D01*
X12555991Y-17421839D02*
X12546468Y-17402792D01*
X12546468Y-17402792D02*
X12536944Y-17374220D01*
X12536944Y-17374220D02*
X12527420Y-17326601D01*
X12527420Y-17326601D02*
X12527420Y-17288506D01*
X12527420Y-17288506D02*
X12536944Y-17240887D01*
X12536944Y-17240887D02*
X12546468Y-17212315D01*
X12546468Y-17212315D02*
X12555991Y-17193268D01*
X12555991Y-17193268D02*
X12575039Y-17164696D01*
X12575039Y-17164696D02*
X12584563Y-17155172D01*
X12698848Y-17183744D02*
X12717896Y-17183744D01*
X12717896Y-17183744D02*
X12736944Y-17193268D01*
X12736944Y-17193268D02*
X12746468Y-17202792D01*
X12746468Y-17202792D02*
X12755991Y-17221839D01*
X12755991Y-17221839D02*
X12765515Y-17259934D01*
X12765515Y-17259934D02*
X12765515Y-17307553D01*
X12765515Y-17307553D02*
X12755991Y-17345649D01*
X12755991Y-17345649D02*
X12746468Y-17364696D01*
X12746468Y-17364696D02*
X12736944Y-17374220D01*
X12736944Y-17374220D02*
X12717896Y-17383744D01*
X12717896Y-17383744D02*
X12698848Y-17383744D01*
X12698848Y-17383744D02*
X12679801Y-17374220D01*
X12679801Y-17374220D02*
X12670277Y-17364696D01*
X12670277Y-17364696D02*
X12660753Y-17345649D01*
X12660753Y-17345649D02*
X12651229Y-17307553D01*
X12651229Y-17307553D02*
X12651229Y-17259934D01*
X12651229Y-17259934D02*
X12660753Y-17221839D01*
X12660753Y-17221839D02*
X12670277Y-17202792D01*
X12670277Y-17202792D02*
X12679801Y-17193268D01*
X12679801Y-17193268D02*
X12698848Y-17183744D01*
X13003610Y-17383744D02*
X13003610Y-17183744D01*
X13089325Y-17383744D02*
X13089325Y-17278982D01*
X13089325Y-17278982D02*
X13079801Y-17259934D01*
X13079801Y-17259934D02*
X13060753Y-17250411D01*
X13060753Y-17250411D02*
X13032182Y-17250411D01*
X13032182Y-17250411D02*
X13013134Y-17259934D01*
X13013134Y-17259934D02*
X13003610Y-17269458D01*
X13213134Y-17383744D02*
X13194087Y-17374220D01*
X13194087Y-17374220D02*
X13184563Y-17364696D01*
X13184563Y-17364696D02*
X13175039Y-17345649D01*
X13175039Y-17345649D02*
X13175039Y-17288506D01*
X13175039Y-17288506D02*
X13184563Y-17269458D01*
X13184563Y-17269458D02*
X13194087Y-17259934D01*
X13194087Y-17259934D02*
X13213134Y-17250411D01*
X13213134Y-17250411D02*
X13241706Y-17250411D01*
X13241706Y-17250411D02*
X13260753Y-17259934D01*
X13260753Y-17259934D02*
X13270277Y-17269458D01*
X13270277Y-17269458D02*
X13279801Y-17288506D01*
X13279801Y-17288506D02*
X13279801Y-17345649D01*
X13279801Y-17345649D02*
X13270277Y-17364696D01*
X13270277Y-17364696D02*
X13260753Y-17374220D01*
X13260753Y-17374220D02*
X13241706Y-17383744D01*
X13241706Y-17383744D02*
X13213134Y-17383744D01*
X13394087Y-17383744D02*
X13375039Y-17374220D01*
X13375039Y-17374220D02*
X13365515Y-17355172D01*
X13365515Y-17355172D02*
X13365515Y-17183744D01*
X13546468Y-17374220D02*
X13527420Y-17383744D01*
X13527420Y-17383744D02*
X13489325Y-17383744D01*
X13489325Y-17383744D02*
X13470277Y-17374220D01*
X13470277Y-17374220D02*
X13460753Y-17355172D01*
X13460753Y-17355172D02*
X13460753Y-17278982D01*
X13460753Y-17278982D02*
X13470277Y-17259934D01*
X13470277Y-17259934D02*
X13489325Y-17250411D01*
X13489325Y-17250411D02*
X13527420Y-17250411D01*
X13527420Y-17250411D02*
X13546468Y-17259934D01*
X13546468Y-17259934D02*
X13555991Y-17278982D01*
X13555991Y-17278982D02*
X13555991Y-17298030D01*
X13555991Y-17298030D02*
X13460753Y-17317077D01*
X13632182Y-17374220D02*
X13651230Y-17383744D01*
X13651230Y-17383744D02*
X13689325Y-17383744D01*
X13689325Y-17383744D02*
X13708372Y-17374220D01*
X13708372Y-17374220D02*
X13717896Y-17355172D01*
X13717896Y-17355172D02*
X13717896Y-17345649D01*
X13717896Y-17345649D02*
X13708372Y-17326601D01*
X13708372Y-17326601D02*
X13689325Y-17317077D01*
X13689325Y-17317077D02*
X13660753Y-17317077D01*
X13660753Y-17317077D02*
X13641706Y-17307553D01*
X13641706Y-17307553D02*
X13632182Y-17288506D01*
X13632182Y-17288506D02*
X13632182Y-17278982D01*
X13632182Y-17278982D02*
X13641706Y-17259934D01*
X13641706Y-17259934D02*
X13660753Y-17250411D01*
X13660753Y-17250411D02*
X13689325Y-17250411D01*
X13689325Y-17250411D02*
X13708372Y-17259934D01*
X13955992Y-17307553D02*
X14108373Y-17307553D01*
X14032182Y-17383744D02*
X14032182Y-17231363D01*
X14441706Y-17250411D02*
X14441706Y-17383744D01*
X14394087Y-17174220D02*
X14346468Y-17317077D01*
X14346468Y-17317077D02*
X14470277Y-17317077D01*
X14689325Y-17374220D02*
X14708373Y-17383744D01*
X14708373Y-17383744D02*
X14746468Y-17383744D01*
X14746468Y-17383744D02*
X14765515Y-17374220D01*
X14765515Y-17374220D02*
X14775039Y-17355172D01*
X14775039Y-17355172D02*
X14775039Y-17345649D01*
X14775039Y-17345649D02*
X14765515Y-17326601D01*
X14765515Y-17326601D02*
X14746468Y-17317077D01*
X14746468Y-17317077D02*
X14717896Y-17317077D01*
X14717896Y-17317077D02*
X14698849Y-17307553D01*
X14698849Y-17307553D02*
X14689325Y-17288506D01*
X14689325Y-17288506D02*
X14689325Y-17278982D01*
X14689325Y-17278982D02*
X14698849Y-17259934D01*
X14698849Y-17259934D02*
X14717896Y-17250411D01*
X14717896Y-17250411D02*
X14746468Y-17250411D01*
X14746468Y-17250411D02*
X14765515Y-17259934D01*
X14889325Y-17383744D02*
X14870277Y-17374220D01*
X14870277Y-17374220D02*
X14860754Y-17355172D01*
X14860754Y-17355172D02*
X14860754Y-17183744D01*
X14994087Y-17383744D02*
X14975039Y-17374220D01*
X14975039Y-17374220D02*
X14965515Y-17364696D01*
X14965515Y-17364696D02*
X14955992Y-17345649D01*
X14955992Y-17345649D02*
X14955992Y-17288506D01*
X14955992Y-17288506D02*
X14965515Y-17269458D01*
X14965515Y-17269458D02*
X14975039Y-17259934D01*
X14975039Y-17259934D02*
X14994087Y-17250411D01*
X14994087Y-17250411D02*
X15022658Y-17250411D01*
X15022658Y-17250411D02*
X15041706Y-17259934D01*
X15041706Y-17259934D02*
X15051230Y-17269458D01*
X15051230Y-17269458D02*
X15060754Y-17288506D01*
X15060754Y-17288506D02*
X15060754Y-17345649D01*
X15060754Y-17345649D02*
X15051230Y-17364696D01*
X15051230Y-17364696D02*
X15041706Y-17374220D01*
X15041706Y-17374220D02*
X15022658Y-17383744D01*
X15022658Y-17383744D02*
X14994087Y-17383744D01*
X15117896Y-17250411D02*
X15194087Y-17250411D01*
X15146468Y-17183744D02*
X15146468Y-17355172D01*
X15146468Y-17355172D02*
X15155992Y-17374220D01*
X15155992Y-17374220D02*
X15175039Y-17383744D01*
X15175039Y-17383744D02*
X15194087Y-17383744D01*
X15251230Y-17374220D02*
X15270277Y-17383744D01*
X15270277Y-17383744D02*
X15308373Y-17383744D01*
X15308373Y-17383744D02*
X15327420Y-17374220D01*
X15327420Y-17374220D02*
X15336944Y-17355172D01*
X15336944Y-17355172D02*
X15336944Y-17345649D01*
X15336944Y-17345649D02*
X15327420Y-17326601D01*
X15327420Y-17326601D02*
X15308373Y-17317077D01*
X15308373Y-17317077D02*
X15279801Y-17317077D01*
X15279801Y-17317077D02*
X15260754Y-17307553D01*
X15260754Y-17307553D02*
X15251230Y-17288506D01*
X15251230Y-17288506D02*
X15251230Y-17278982D01*
X15251230Y-17278982D02*
X15260754Y-17259934D01*
X15260754Y-17259934D02*
X15279801Y-17250411D01*
X15279801Y-17250411D02*
X15308373Y-17250411D01*
X15308373Y-17250411D02*
X15327420Y-17259934D01*
X15403611Y-17459934D02*
X15413135Y-17450411D01*
X15413135Y-17450411D02*
X15432182Y-17421839D01*
X15432182Y-17421839D02*
X15441706Y-17402792D01*
X15441706Y-17402792D02*
X15451230Y-17374220D01*
X15451230Y-17374220D02*
X15460754Y-17326601D01*
X15460754Y-17326601D02*
X15460754Y-17288506D01*
X15460754Y-17288506D02*
X15451230Y-17240887D01*
X15451230Y-17240887D02*
X15441706Y-17212315D01*
X15441706Y-17212315D02*
X15432182Y-17193268D01*
X15432182Y-17193268D02*
X15413135Y-17164696D01*
X15413135Y-17164696D02*
X15403611Y-17155172D01*
M02*
